<svg width="93" height="99" viewBox="0 0 93 99" fill="none" xmlns="http://www.w3.org/2000/svg">
<mask id="mask0_616_3040" style="mask-type:alpha" maskUnits="userSpaceOnUse" x="0" y="0" width="93" height="99">
<path d="M8.96 16.2975L2.9184 15.7343C2.23573 14.9493 1.26293 14.3178 0 13.8399L0.4608 12.2527C0.494933 12.0479 0.682666 11.9455 1.024 11.9455C1.70667 11.9455 2.52587 11.9797 3.4816 12.0479C4.43733 12.0821 5.39307 12.1503 6.3488 12.2527C7.33867 12.321 8.17493 12.4063 8.8576 12.5087L8.96 16.2975ZM7.7824 36.9823H4.5568C4.352 36.5727 4.18133 36.0778 4.0448 35.4975C3.90827 34.8831 3.80587 34.2858 3.7376 33.7055L2.9184 15.7343L8.96 15.3247L9.0624 32.9887C9.09653 33.9786 9.0112 34.7637 8.8064 35.3439C8.6016 35.9242 8.26027 36.4703 7.7824 36.9823ZM31.1808 35.1391L8.6016 35.3439L8.7552 31.5551C9.8816 31.5551 11.1445 31.5551 12.544 31.5551C13.9776 31.5551 15.4283 31.5551 16.896 31.5551C18.3637 31.521 19.7632 31.4869 21.0944 31.4527C22.4597 31.4186 23.6203 31.3845 24.576 31.3503L26.2144 30.8895C27.136 30.5823 27.8869 30.4287 28.4672 30.4287C29.0816 30.4287 29.6448 30.5994 30.1568 30.9407L31.5392 31.7087C31.9147 31.8794 32.1024 32.1354 32.1024 32.4767C32.1024 33.0911 32 33.6373 31.7952 34.1151C31.6245 34.5589 31.4197 34.9002 31.1808 35.1391ZM26.2144 12.2015L26.1632 16.0415C24.3541 16.0415 22.4427 16.0586 20.4288 16.0927C18.4149 16.1269 16.4181 16.161 14.4384 16.1951C12.4587 16.2293 10.5984 16.2634 8.8576 16.2975L8.8064 12.5087C9.76213 12.5087 11.0251 12.4917 12.5952 12.4575C14.1653 12.4234 15.8208 12.4063 17.5616 12.4063C19.3024 12.3722 20.9408 12.3381 22.4768 12.3039C24.0469 12.2698 25.2928 12.2357 26.2144 12.2015ZM31.8464 15.8367L25.856 16.0415L26.2144 12.2015L28.416 11.3311C28.7915 11.1605 29.1499 11.1605 29.4912 11.3311C29.9008 11.5018 30.4128 11.7407 31.0272 12.0479C31.6757 12.3551 32.1536 12.6111 32.4608 12.8159C32.6997 12.9525 32.7339 13.2085 32.5632 13.5839L31.8464 15.8367ZM30.5664 31.1967H25.7024L25.856 15.9903L31.8464 15.7855C31.8123 18.209 31.6587 20.8031 31.3856 23.5679C31.1467 26.3327 30.8736 28.8757 30.5664 31.1967Z" fill="#293857"/>
<path d="M49.408 48.6912H46.2336C46.1653 48.2475 46.08 47.5307 45.9776 46.5408C45.9093 45.5851 45.8411 44.544 45.7728 43.4176C45.7045 42.2571 45.6533 41.1648 45.6192 40.1408C45.6192 39.1168 45.6192 38.3147 45.6192 37.7344V4.9152C45.2779 4.36907 44.7659 3.85707 44.0832 3.3792C43.4005 2.8672 42.6496 2.4576 41.8304 2.1504L42.4448 0.358398C42.5131 0.256 42.5984 0.170667 42.7008 0.102399C42.8373 0.0341329 43.0251 0 43.264 0C43.9808 0.0341329 44.8171 0.136533 45.7728 0.307199C46.7627 0.443733 47.7013 0.631467 48.5888 0.870401C49.5104 1.10933 50.2443 1.36533 50.7904 1.6384C51.3024 1.8432 51.5413 2.26987 51.5072 2.9184L51.3536 5.7856V35.9424C51.3536 36.7616 51.3024 37.7344 51.2 38.8608C51.1317 39.9872 51.0123 41.1477 50.8416 42.3424C50.6709 43.5371 50.4661 44.6805 50.2272 45.7728C49.9883 46.8992 49.7152 47.872 49.408 48.6912ZM39.168 45.5168H36.1472C36.0789 45.0048 35.9936 44.3051 35.8912 43.4176C35.8229 42.496 35.7547 41.5232 35.6864 40.4992C35.6181 39.4411 35.5669 38.4512 35.5328 37.5296C35.5328 36.608 35.5328 35.8571 35.5328 35.2768V8.0896C35.2256 7.5776 34.7477 7.09973 34.0992 6.656C33.4507 6.21227 32.7509 5.8368 32 5.5296L32.6656 3.7888C32.768 3.54987 33.0411 3.4304 33.4848 3.4304C34.1675 3.46453 34.9525 3.56693 35.84 3.7376C36.7275 3.87413 37.5979 4.06187 38.4512 4.3008C39.3045 4.5056 39.9701 4.74453 40.448 5.0176C40.8917 5.2224 41.1136 5.632 41.1136 6.2464L40.96 8.8576V33.6384C40.96 34.6624 40.8747 35.9083 40.704 37.376C40.5675 38.8437 40.3627 40.3115 40.0896 41.7792C39.8507 43.2469 39.5435 44.4928 39.168 45.5168ZM48.0768 23.9104L39.2704 24.1152V20.4288L48.0768 20.224V23.9104Z" fill="#293857"/>
<path d="M36.1088 49.0337C36.1088 51.6278 35.4773 53.8806 34.2144 55.7921C32.9856 57.7035 31.296 59.1883 29.1456 60.2465C26.9952 61.3046 24.64 61.8337 22.08 61.8337C19.4859 61.8337 17.1307 61.3046 15.0144 60.2465C12.8981 59.1883 11.1915 57.7035 9.8944 55.7921C8.63147 53.8806 8 51.6278 8 49.0337C8 46.5761 8.63147 44.4257 9.8944 42.5825C11.1915 40.7393 12.8981 39.3227 15.0144 38.3329C17.1307 37.3089 19.4859 36.7969 22.08 36.7969C24.64 36.7969 26.9952 37.3089 29.1456 38.3329C31.296 39.3227 32.9856 40.7393 34.2144 42.5825C35.4773 44.4257 36.1088 46.5761 36.1088 49.0337ZM30.1184 49.0337C30.1184 47.2929 29.76 45.8251 29.0432 44.6305C28.3264 43.4017 27.3536 42.4801 26.1248 41.8657C24.9301 41.2171 23.5819 40.8929 22.08 40.8929C20.6123 40.8929 19.264 41.2171 18.0352 41.8657C16.8064 42.4801 15.8336 43.4017 15.1168 44.6305C14.4 45.8251 14.0416 47.2929 14.0416 49.0337C14.0416 50.7745 14.4 52.2593 15.1168 53.4881C15.8336 54.7169 16.8064 55.6555 18.0352 56.3041C19.264 56.9185 20.6123 57.2257 22.08 57.2257C23.5819 57.2257 24.9301 56.9185 26.1248 56.3041C27.3536 55.6555 28.3264 54.7169 29.0432 53.4881C29.76 52.2593 30.1184 50.7745 30.1184 49.0337Z" fill="#293857"/>
<path d="M78.9372 52.8609L57.8428 53.0145L59.8396 49.3793C60.4199 49.3793 61.1537 49.3793 62.0412 49.3793C62.9287 49.3793 63.8844 49.3793 64.9084 49.3793C65.9324 49.3793 66.9564 49.3793 67.9804 49.3793C69.0044 49.3451 69.9601 49.3281 70.8476 49.3281C71.7351 49.2939 72.4689 49.2598 73.0492 49.2257L74.534 48.4577C75.3873 48.4235 76.3431 48.4577 77.4012 48.5601C78.4593 48.6625 79.2785 48.7819 79.8588 48.9185C80.4732 49.0891 80.7804 49.4475 80.7804 49.9937C80.7804 50.6081 80.678 51.1542 80.4732 51.6321C80.3025 52.0758 80.1148 52.383 79.91 52.5537C79.7052 52.7585 79.3809 52.8609 78.9372 52.8609ZM78.2204 32.9441L58.5084 33.2001V29.7697C59.0545 29.7697 59.8055 29.7697 60.7612 29.7697C61.7511 29.7697 62.8092 29.7697 63.9356 29.7697C65.062 29.7355 66.1713 29.7185 67.2636 29.7185C68.39 29.6843 69.414 29.6673 70.3356 29.6673C71.2572 29.6331 71.9569 29.599 72.4348 29.5649L74.022 28.7969C74.7388 28.7969 75.5921 28.831 76.582 28.8993C77.5719 28.9675 78.3569 29.0529 78.9372 29.1553C79.5175 29.2918 79.8076 29.6331 79.8076 30.1793C79.8076 30.7595 79.7393 31.2715 79.6028 31.7153C79.4663 32.1249 79.3127 32.4321 79.142 32.6369C78.9372 32.8417 78.63 32.9441 78.2204 32.9441ZM59.8396 49.3793L57.8428 53.0145C55.9996 53.0486 54.6513 52.6561 53.798 51.8369C52.9447 50.9835 52.518 49.823 52.518 48.3553V42.4673H58.6108V48.1505C58.6108 48.9697 59.0204 49.3793 59.8396 49.3793ZM58.6108 42.8257H52.518V33.3537C51.8353 32.4662 50.8625 31.7835 49.5996 31.3057L50.0092 29.5649C50.0775 29.3601 50.2823 29.2577 50.6236 29.2577C51.2721 29.2577 52.1084 29.2747 53.1324 29.3089C54.1905 29.343 55.2316 29.4113 56.2556 29.5137C57.3137 29.5819 58.1329 29.6673 58.7132 29.7697L58.6108 33.2001V42.8257Z" fill="#293857"/>
<path d="M82.7902 69.1297L84.9918 68.1057C85.7086 68.1398 86.4937 68.2081 87.347 68.3105C88.2003 68.4129 89.0025 68.5323 89.7534 68.6689C90.5043 68.8054 91.0846 68.959 91.4942 69.1297C92.0745 69.3345 92.3646 69.727 92.3646 70.3073C92.3646 70.9558 92.1939 71.5361 91.8526 72.0481C91.5113 72.5601 91.1699 72.9014 90.8286 73.0721C90.419 73.0038 89.7875 72.9526 88.9342 72.9185C88.115 72.8843 87.2787 72.8673 86.4254 72.8673C85.6062 72.8331 84.9065 72.8161 84.3262 72.8161C83.7459 72.8161 82.739 72.8331 81.3054 72.8673C79.8718 72.8673 78.1822 72.8843 76.2366 72.9185C74.3251 72.9185 72.3283 72.9355 70.2462 72.9697C68.1982 72.9697 66.2185 72.9867 64.307 73.0209C62.4297 73.055 60.7913 73.0891 59.3918 73.1233C58.0265 73.1574 57.0878 73.1915 56.5758 73.2257C56.1321 73.2598 55.5347 73.3451 54.7838 73.4817C54.0329 73.5841 53.2819 73.7035 52.531 73.8401C51.8142 73.9766 51.2169 74.1131 50.739 74.2497C49.715 73.8742 48.691 73.3451 47.667 72.6625C46.643 71.9798 45.7555 71.2971 45.0046 70.6145C44.7998 70.4097 44.7486 70.1707 44.851 69.8977L45.3118 69.0273C46.3358 69.1979 47.4451 69.3345 48.6398 69.4369C49.8686 69.5393 50.9438 69.6075 51.8654 69.6417C52.3774 69.6417 53.2478 69.6417 54.4766 69.6417C55.7054 69.6417 57.1561 69.6417 58.8286 69.6417C60.5353 69.6075 62.3614 69.5734 64.307 69.5393C66.2526 69.5051 68.1982 69.471 70.1438 69.4369C72.0894 69.4027 73.9155 69.3686 75.6222 69.3345C77.363 69.3003 78.8649 69.2662 80.1278 69.2321C81.3907 69.1979 82.2782 69.1638 82.7902 69.1297ZM71.3214 57.6097L65.5358 56.6369C65.2627 56.2955 64.819 55.9542 64.2046 55.6129C63.6243 55.2374 63.027 54.9473 62.4126 54.7425L62.771 53.1553C62.8051 53.0529 62.8734 52.9675 62.9758 52.8993C63.0782 52.831 63.2659 52.7969 63.539 52.7969C64.1534 52.7969 64.9555 52.8481 65.9454 52.9505C66.9694 53.0187 67.9422 53.1211 68.8638 53.2577C69.8195 53.3601 70.5193 53.4795 70.963 53.6161C71.5091 53.7526 71.731 54.111 71.6286 54.6913L71.3214 57.6097ZM71.1678 70.4609H65.587L65.5358 56.6369L71.3214 57.6097L71.1678 70.4609Z" fill="#293857"/>
<path d="M77.6267 74.5566V78.1918C76.944 78.1918 76.0736 78.1918 75.0155 78.1918C73.9574 78.1918 72.831 78.1918 71.6363 78.1918C70.4416 78.1918 69.2811 78.2088 68.1547 78.243C67.0283 78.2771 66.0214 78.3112 65.1339 78.3454C64.2464 78.3454 63.5979 78.3624 63.1883 78.3966C62.5056 78.4307 61.6694 78.5331 60.6795 78.7038C59.6896 78.8744 58.8704 79.0792 58.2219 79.3182C57.2662 78.9427 56.3275 78.4648 55.4059 77.8846C54.5184 77.3043 53.7334 76.724 53.0507 76.1438C52.8118 75.939 52.7435 75.7 52.8459 75.427L53.3067 74.5566C54.2283 74.6931 55.2182 74.7955 56.2763 74.8638C57.3686 74.932 58.3414 74.9662 59.1947 74.9662C59.6726 74.9662 60.5088 74.9662 61.7035 74.9662C62.9323 74.932 64.3147 74.8979 65.8507 74.8638C67.4208 74.8296 68.991 74.7955 70.5611 74.7614C72.1312 74.7272 73.5478 74.6931 74.8107 74.659C76.1078 74.6248 77.0464 74.5907 77.6267 74.5566ZM82.7467 78.2942L76.8075 78.1406L77.5243 74.5566L79.3675 73.7374C79.7088 73.5667 80.0502 73.5667 80.3915 73.7374C80.8011 73.9422 81.3131 74.2152 81.9275 74.5566C82.5419 74.8979 83.0027 75.171 83.3099 75.3758C83.5147 75.5806 83.5488 75.8536 83.4123 76.195L82.7467 78.2942ZM80.9547 98.9278H77.4219C77.3195 98.4158 77.2171 97.7672 77.1147 96.9822C77.0123 96.163 76.927 95.3438 76.8587 94.5246C76.8246 93.6712 76.8075 92.9374 76.8075 92.323V78.1406H82.7467L82.5931 91.043C82.5931 91.7939 82.5078 92.6814 82.3371 93.7054C82.2006 94.6952 82.0128 95.651 81.7739 96.5726C81.535 97.4942 81.2619 98.2792 80.9547 98.9278Z" fill="#293857"/>
</mask>
<g mask="url(#mask0_616_3040)">
<rect x="-19.2002" y="-12.7969" width="128" height="128" fill="white"/>
<rect x="-19.2002" y="-12.7969" width="42.6667" height="128" fill="#000091"/>
<rect x="66.1328" y="-12.7969" width="42.6667" height="128" fill="#E1000F"/>
</g>
</svg>
