<svg width="744" height="1032" viewBox="0 0 744 1032" fill="none" xmlns="http://www.w3.org/2000/svg">
<path d="M185.67 755.029L185.17 756.048L189.672 753.502L197.676 749.43L210.182 745.358L232.193 737.214V724.997V713.798L233.194 704.127L235.195 693.946L237.696 683.257L245.2 664.423L253.204 650.17L264.209 633.881L276.716 620.647L292.724 603.849L300.343 597.74C311.641 582.673 349.329 547.686 366.761 532.076C407.595 489.725 416.792 466.921 416.286 460.812L409.282 462.849L403.279 463.358H397.443L398.777 464.376V467.43L397.776 471.502L396.776 474.047L394.775 479.137L392.274 485.246L389.772 491.863L385.77 498.48L381.268 504.08L374.765 509.679L366.26 516.296L355.255 524.441L346.751 530.04L339.247 535.13L332.243 539.202L321.238 545.82L311.733 552.437L294.725 564.145L282.218 572.289L273.714 579.416L265.71 585.015L263.209 586.542L252.704 596.213L243.199 606.394L230.693 620.647L226.19 625.737L222.689 631.336L219.687 635.408L216.686 640.499L214.685 644.062L212.684 647.625L210.182 651.188L208.682 654.242L207.681 656.278L206.681 657.806L205.68 659.842L205.18 662.896L203.679 664.423L202.679 666.459L202.178 667.986V669.513L201.178 671.04L200.678 672.567H200.177L199.177 673.585V675.112L198.677 675.621V677.149L197.676 678.167V681.221L196.676 682.239V684.275L195.675 685.293V687.838L194.675 688.347V690.383L194.174 690.892L193.674 693.437L193.174 693.946L192.674 697.001L192.173 698.019V701.582L191.173 702.091V705.654L190.172 706.672V710.744L189.672 711.762V715.325L188.672 717.362V721.943L187.671 724.997L187.171 734.159L186.671 736.196L186.17 745.358L185.67 746.376V755.029Z" fill="#3A3A3A" fill-opacity="0.2"/>
<path d="M325.265 576.361L308.757 590.614L299.868 597.74C311.166 582.673 348.854 547.686 366.286 532.076C407.121 489.725 416.317 466.921 415.811 460.812L423.315 459.285L422.314 463.357L420.813 469.466L419.313 479.137L417.812 486.773L415.311 501.534L413.81 512.733L412.809 521.895L411.309 524.44L409.308 526.767L407.807 528.513L397.302 536.657L382.294 545.82L365.786 556L347.276 566.181L334.27 572.798L325.265 576.361Z" fill="#3A3A3A" fill-opacity="0.2"/>
<path d="M250.484 727.91L231.475 737.582V725.365V714.166L232.475 704.495L234.476 694.314L236.977 683.625L244.481 664.791L252.485 650.538L263.491 634.249L275.997 621.015L292.005 604.217L299.624 598.109L308.513 590.982L325.021 576.729L334.026 573.166L347.032 566.549L365.542 556.368L382.05 546.188L397.057 537.025L407.563 528.881L409.063 527.136L411.064 528.881L411.565 532.444L411.064 537.025L408.063 543.134L409.063 558.404V578.256L406.562 596.581L405.895 603.199L404.561 616.433L400.059 625.087L393.556 631.704L384.051 644.43L377.047 655.628L365.542 627.632L361.039 618.47L344.031 645.448L329.524 664.282L312.515 685.152L296.507 705.004L285.001 719.257L281.75 724.601L276.497 726.892L268.493 730.964L261.99 735.036L254.486 738.6L257.488 733.509L268.993 725.365L280.999 719.257L272.995 720.275L250.484 727.91Z" fill="#2E2E2E" fill-opacity="0.2"/>
<path d="M298.149 718.23L287.144 722.302L281.891 724.593L285.143 719.248L296.648 704.995L312.656 685.143L329.665 664.273L344.172 645.439L361.181 618.461L365.683 627.623L377.189 655.62L384.192 644.421L393.697 631.696L400.2 625.078L404.702 616.425L403.702 624.06L399.2 644.421L396.698 662.746L393.197 685.652L390.695 708.559L386.693 741.933L377.689 741.136L365.683 742.154L360.68 743.172H350.675H346.673L346.173 741.645L349.675 740.118L352.676 738.082L357.679 735.537L363.682 732.992L367.684 730.956L371.686 728.92L375.188 727.392L379.69 725.865L383.192 724.338L386.693 723.32L388.694 720.775L388.194 719.757H376.688H366.183L360.18 720.775L355.678 721.284L350.675 722.302L344.672 723.32L349.675 721.284L351.676 720.266L355.678 719.248L359.68 717.721L363.182 715.176H358.179L352.676 716.194L349.175 716.703L343.672 718.23L338.169 719.757L327.164 723.32L319.16 726.374L312.656 728.92L305.653 731.974L299.65 734.519L295.148 736.555L287.644 739.609L281.641 742.154L277.139 744.19L278.139 742.663L283.642 739.609L290.145 735.537L295.648 731.974L304.152 727.392L310.155 723.32L314.657 720.775L321.661 718.23L332.666 714.158L339.17 710.595L330.165 711.104L322.161 712.122L314.657 713.649L305.653 716.194L298.149 718.23Z" fill="#2E2E2E" fill-opacity="0.2"/>
<path d="M523.261 809.345L519.259 805.782C521.26 797.23 517.091 767.944 514.757 754.37L515.757 753.352V722.301L516.258 720.774L518.259 724.338L521.26 730.955L525.262 738.59L530.265 744.19L535.767 750.298L540.77 755.388H542.271L544.272 748.771L546.773 741.644L547.842 726.374L548.774 736.045L551.775 762.006L555.777 786.948L560.28 805.782L564.282 823.598L568.784 839.886L571.785 851.085L576.288 864.829L580.29 875.009L585.292 884.091L577.788 878.063L571.785 873.482L566.283 868.901L559.779 863.811L555.277 859.739L554.277 858.72H555.777L557.778 859.739L561.78 862.284L566.783 864.829L569.784 865.338L572.286 865.847L565.282 859.739L562.781 856.684L554.777 851.085L551.775 848.031L547.273 845.486L542.771 841.923L537.768 838.359L531.765 833.778L526.763 829.706L522.261 826.652L516.758 822.071L512.756 818.507L509.254 816.471L505.752 813.926L502.751 811.381L500.25 809.345L499.249 808.327L502.251 808.836L505.252 809.854L507.753 810.872L511.755 811.89L515.757 812.908L519.759 814.435L523.261 816.471L527.263 818.507L530.765 820.544L533.766 821.562H535.767V820.544L531.765 816.98L526.763 812.399L523.261 809.345Z" fill="#1A1A1A" fill-opacity="0.2"/>
<path d="M504.252 794.075L498.749 790.511C494.347 772.797 492.246 770.235 491.745 771.168V769.132L490.745 762.515L489.244 755.898L487.743 748.771V740.627L487.243 729.937V728.41L488.244 728.919L493.246 735.027L499.749 742.663L505.252 747.244L510.755 750.807L514.757 754.37C517.091 767.945 521.26 797.23 519.259 805.782L513.756 800.692L508.754 797.129L504.252 794.075Z" fill="#0A0A0A" fill-opacity="0.2"/>
<path d="M472.736 775.9L464.732 771.827V766.228L462.731 760.629L461.731 753.502L461.23 745.867V737.723V735.687L468.234 745.358L472.736 752.484L477.238 757.575L484.742 765.21L489.244 770.3L491.746 771.318C492.246 770.385 494.347 772.947 498.749 790.661L493.246 787.098L486.243 783.026L479.239 779.463L472.736 775.9Z" fill="#121212" fill-opacity="0.2"/>
<path d="M532.266 637.04L528.264 628.387L526.763 625.078C527.964 667.225 512.256 694.56 504.252 702.959C504.252 730.854 508.587 746.311 510.755 750.553L514.757 754.116L515.758 753.098V722.048L516.258 720.521L518.259 724.084L521.26 730.701L525.262 738.336L530.265 743.936L535.768 750.044L540.77 755.134H542.271L544.272 748.517L546.773 741.391L547.842 726.12L546.273 709.831L545.272 696.087L544.272 681.835L543.271 674.199L541.771 665.546L540.77 658.928L539.269 654.856L535.768 645.185L532.266 637.04Z" fill="#222222" fill-opacity="0.2"/>
<path d="M419.851 756.706L413.848 755.688L426.354 754.67L434.858 750.089L440.861 740.417L443.863 733.8L444.363 727.182L444.863 717.511L442.862 707.839L438.36 693.587L433.858 681.37L430.356 669.662L427.354 657.446L423.352 643.702L421.351 637.085L418.35 627.413L416.849 618.251L415.849 610.615L416.849 604.507L417.85 603.998L418.35 604.507L418.85 607.561V615.706L421.351 623.341L424.853 634.031L429.355 647.774L435.358 661.009L441.862 674.244L446.864 683.915L456.869 695.114L463.873 700.713L471.877 709.875L479.38 717.511L484.883 723.619L487.885 728.709L486.884 728.2V729.727L487.384 740.417V748.561L488.885 755.688L490.386 762.305L491.386 768.922V770.959L488.885 769.941L484.383 764.85L476.879 757.215L472.377 752.125L467.875 744.998L460.871 735.327V737.363V745.507L461.371 753.143L462.372 760.269L464.373 765.868V771.468L460.371 769.941L455.869 767.904L451.366 765.868L445.864 763.832L439.861 762.305L433.858 760.269L426.854 758.233L419.851 756.706Z" fill="#222222" fill-opacity="0.2"/>
<path d="M396.839 741.645H389.335L386.834 741.424L390.836 708.049L393.337 685.143L396.839 662.237L399.34 643.912L403.842 623.551L404.843 615.916L406.177 602.681L409.345 610.825L414.348 604.208L418.35 597.591L423.352 593.009L424.853 594.536L427.354 604.717L428.355 613.879L435.358 628.641L440.861 641.367L445.363 651.038L451.366 658.674L456.369 651.038L459.871 641.367L463.372 632.204L469.375 622.024H473.878L480.881 623.551L486.884 627.114L496.389 628.641L505.894 627.623L504.893 624.569L498.089 617.952L491.386 606.753L483.382 591.991L476.379 576.212L471.877 565.013L469.876 556.36L468.875 552.287H467.875L465.874 558.396L462.372 566.54L459.37 559.923L458.37 554.323L455.869 537.526L458.37 547.197H458.87L459.37 545.67L459.871 541.598L461.371 538.035L462.372 534.471L464.373 530.399L465.874 525.818L467.875 521.746L468.875 518.692L469.876 516.656L470.376 516.146H470.876V517.674L471.877 524.8L472.377 530.399L473.377 536.508L475.378 542.616L477.379 548.215L478.88 554.323L480.881 558.396L481.882 561.959L484.883 568.576L489.886 580.793L493.888 589.446L496.389 593.009V590.973V589.446L494.888 585.883L493.888 580.284L492.387 575.194L491.386 569.594L490.386 565.013L489.385 559.923L492.387 565.522L494.888 572.648L497.389 580.284L501.391 588.428L505.894 596.064L509.395 603.699L511.897 608.789V608.28L512.397 603.699L512.897 599.118L513.898 594.536V588.428L514.398 587.919L514.898 588.428L515.899 594.536L518.4 602.681L521.902 612.861L524.903 622.024L526.404 625.333C527.604 667.48 511.897 694.815 503.893 703.214C503.893 731.108 508.228 746.566 510.396 750.807L504.893 747.244L499.39 742.663L492.887 735.028L487.885 728.919L484.883 723.829L479.38 717.721L471.877 710.085L463.873 700.923L456.869 695.324L446.864 684.125L441.862 674.454L435.358 661.219L429.355 647.984L424.853 634.241L421.351 623.551L418.85 615.916V607.771L418.35 604.717L417.849 604.208L416.849 604.717L415.848 610.825L416.849 618.461L418.35 627.623L421.351 637.295L423.352 643.912L427.354 657.656L430.356 669.872L433.858 681.58L438.36 693.797L442.862 708.049L444.863 717.721L444.363 727.392L443.863 734.01L440.861 740.627L434.858 750.298L426.354 754.88L413.847 755.898L406.844 754.88L399.34 754.371L393.837 753.862L389.835 752.844L390.836 751.826L393.337 750.298L397.339 748.771L402.342 748.262L407.844 747.244L417.849 746.226L418.85 745.717L417.849 744.699L411.846 743.681L404.843 742.663L396.839 741.645Z" fill="#222222" fill-opacity="0.2"/>
<path d="M412.873 521.895L411.372 524.44L409.371 526.767L411.372 528.513L411.873 532.076L411.372 536.657L408.371 542.765L409.371 558.036V577.888L406.87 596.213L406.203 602.83L409.371 610.975L414.374 604.357L418.376 597.74L423.378 593.159L424.879 594.686L427.38 604.866L428.381 614.029L435.384 628.791L440.887 641.516L445.389 651.188L451.392 658.823L456.395 651.188L459.897 641.516L463.398 632.354L469.401 622.173H473.904L480.907 623.7L486.91 627.264L496.415 628.791L505.92 627.773L504.919 624.718L498.115 618.101L491.412 606.903L483.408 592.141L476.405 576.361L471.903 565.162L469.902 556.509L468.901 552.437H467.901L465.9 558.545L462.398 566.689L459.396 560.072L458.396 554.473L455.895 537.675L453.393 528.513L451.893 517.314L450.892 508.661L449.391 501.534V482.191V460.303V447.068L442.888 450.632L431.883 455.722L423.378 459.285L422.378 463.357L420.877 469.466L419.376 479.137L417.876 486.772L415.374 501.534L413.874 512.733L412.873 521.895Z" fill="#2E2E2E" fill-opacity="0.2" stroke="#2E2E2E" stroke-opacity="0.2"/>
<path d="M674 737.251L675 734.251L675.656 730.489L671 734.251L666 739.251L663.088 745.173L663 740.751L663.088 739.251C653.392 762.084 632.3 820.951 625.5 873.751C624.833 881.251 624.069 900.788 625.469 910.788L628.815 911.717L637 913.501L640.5 914.501L641 914.751L640.5 915.501L636 914.751L631.5 915.751L626 916.251L620.5 917.251H614L614.5 918.251L616.547 922.87L619.521 925.844L623.5 930.501L627 935.251L629.5 939.751L632.5 943.501L637.5 949.001L641 951.251L645 954.001L649 958.251L653 959.001L656 962.501L661.5 964.501L658.5 960.751L656 958.251L654 955.251L653 952.751L652 950.251L651 947.751L650 945.251L649 942.251L648.5 939.751L647.5 936.751L646.5 932.251L645.5 928.751L645 924.751L644 919.751L643 915.751L642 909.751V879.251L643 874.751L644 868.751L645 863.751L646 858.751L646.5 851.751L647.5 847.251L648.5 842.751L649.5 837.751L650.5 834.251L651.5 829.751L652.5 824.751L653.5 822.251L654.5 815.751L655 812.751L656.5 807.251L657.5 803.751L658.5 799.751L659.5 794.251L660 791.751L661 788.251L662 784.251L663 779.751L663.5 776.251L664.5 773.251L665 769.751L666 764.751L668 758.751L669.5 753.751L670 750.251L671 747.251L672 743.751L673 740.751L674 737.251Z" fill="#1A1A1A" fill-opacity="0.2" stroke="#1A1A1A" stroke-opacity="0.2"/>
<path d="M677.98 973.911L674.478 972.893L675.479 974.929L676.98 977.474L678.48 980.528L676.98 982.564L671.477 983.073L663.973 985.85L660.471 987.145L655.469 991.218L649.966 992.745L641.462 997.326L636.96 999.871L631.957 1002.93L626.454 1006.49L622.452 1010.05L617.95 1013.11H621.952L624.453 1013.61L628.956 1016.67L636.96 1019.72L640.962 1021.25L646.464 1022.27H664.974H678.48L683.983 1021.25L687.485 1020.23L693.988 1018.7L696.99 1017.18L699.991 1014.63L701.992 1012.09V1009.03V1003.94L701.492 999.871L699.991 995.29L698.49 992.236L696.489 988.672L693.988 984.6L690.987 982.055L687.485 979.001L683.483 976.456L680.982 975.438L677.98 973.911Z" fill="#121212" fill-opacity="0.2"/>
<path d="M655.327 991.496L660.33 987.424L663.831 986.128C665.332 989.614 669.034 996.891 671.835 998.113C674.637 999.335 674.67 1003.37 674.337 1005.24C672.169 1006.09 667.733 1006.87 667.333 1003.2C666.933 999.538 659.162 993.871 655.327 991.496Z" fill="#0A0A0A" fill-opacity="0.2"/>
<path d="M599.8 896.898L593.297 892.317L590.045 889.008L589.795 880.609V856.685L591.296 834.797L593.797 809.346L595.798 784.912L598.299 762.006L601.645 734.01L602.301 747.753L603.802 757.934L604.802 775.75L607.804 773.205L610.305 769.133L613.307 774.732L614.807 776.768L617.809 772.696L621.811 762.006L625.813 751.826L632.316 744.19L637.519 736.046C628.948 770.66 610.605 852.002 605.803 900.461L599.8 896.898Z" fill="#121212" fill-opacity="0.2"/>
<path d="M613.306 905.042L605.803 900.461C610.605 852.002 628.948 770.66 637.519 736.046L638.819 734.01L643.822 726.374L647.824 715.685L653.827 708.049L660.33 698.378L663.832 703.977L664.832 713.14L665.333 721.793L663.832 730.956L663.42 738.082C653.719 761.327 632.616 821.257 625.813 875.01C625.146 882.645 624.162 900.461 625.563 910.642L621.811 909.624L613.306 905.042Z" fill="#0A0A0A" fill-opacity="0.2"/>
<path d="M605.458 710.086L607.459 706.014L610.461 703.214L613.462 700.414C621.8 698.039 642.477 691.252 658.485 683.107C657.317 683.871 654.783 689.928 653.982 708.05L647.979 715.685L643.977 726.375L638.975 734.01L637.674 736.046L632.472 744.191L625.968 751.826L621.966 762.006L617.964 772.696L614.963 776.768L613.462 774.732L610.461 769.133L607.959 773.205L604.958 775.75L603.957 757.934L602.457 747.754L601.801 734.01L602.957 724.339L605.458 710.086Z" fill="#222222" fill-opacity="0.2" stroke="#222222" stroke-opacity="0.2"/>
<path d="M684.783 703.828L687.284 698.228C685.617 679.734 682.782 640.607 684.783 632.055C687.284 621.365 709.795 575.044 706.294 558.755L703.792 566.391L702.792 570.463L701.291 567.918L700.791 562.318L698.79 553.156L696.289 544.502L693.787 538.394L691.286 531.777L688.285 525.16L685.283 520.578L682.782 515.997L680.781 513.961V517.015L681.781 522.105L682.782 527.705V534.831V544.502V562.827L682.282 570.463L681.781 579.116L680.281 584.716L678.78 590.315L675.778 601.513L672.777 609.149L670.276 616.275L669.275 610.167V601.513L668.275 591.333L667.274 586.243L666.274 594.387L664.273 605.586L662.272 616.275L659.77 626.456L654.768 638.672L650.266 649.362L645.263 657.506L641.761 663.615L636.759 670.741L633.257 675.322L627.754 682.958L620.751 691.611L613.247 700.264C621.585 697.889 642.262 691.102 658.27 682.958C657.102 683.721 654.568 689.778 653.767 707.9L660.271 698.228L663.772 703.828L664.773 712.99L665.273 721.644L663.772 730.806L663.36 737.932L663.272 739.459V745.059L666.274 739.459L671.276 733.86L675.778 730.551L676.279 728.261L678.28 722.662L680.281 717.062L681.781 711.463L684.783 703.828Z" fill="#2E2E2E" fill-opacity="0.2"/>
<path d="M743.5 487.851V499.049L742.999 503.122L741.999 504.649L741.499 506.685L740.498 507.703V511.266V528.827V546.389L738.997 555.042L737.997 562.678L736.996 568.786L735.996 573.367L734.995 577.948L733.995 581.512L732.994 586.602L731.994 590.165L730.993 593.728L729.993 596.782L729.493 600.346L728.492 603.909L727.492 605.945L726.491 608.999L725.491 611.544L724.99 613.58L723.99 616.125L722.989 619.179L721.989 621.216L720.988 623.761L719.988 626.815L718.987 628.851L717.487 633.432L715.486 638.013L714.485 640.05L713.485 642.595L712.984 644.631L711.984 647.176L709.983 652.266L707.982 656.847L705.981 660.411L704.48 664.483L702.479 668.046L700.478 672.118L696.976 678.736L693.475 684.844L690.473 690.443L689.473 693.497L687.472 698.079C685.804 679.584 682.969 640.457 684.97 631.905C687.472 621.216 709.983 574.894 706.481 558.605L707.482 549.952V540.28L706.481 528.827C708.307 520.264 710.359 508.402 711.724 495.995C712.526 488.701 713.091 481.218 713.233 474.107C715.56 468.72 719.94 456.737 719.556 450.396C719.532 450.15 719.509 449.909 719.488 449.674C719.518 449.905 719.541 450.146 719.556 450.396C720.817 463.467 725.138 491.677 732.994 505.667C740.198 493.857 742.733 484.797 743.1 481.742L743.5 487.851Z" fill="#2E2E2E" fill-opacity="0.2"/>
<path d="M170.828 736.967L169.827 735.949L171.828 742.567L170.828 747.657L169.827 757.328V762.928L172.328 764.455L172.829 764.794L177.831 761.401L184.334 756.819L182.333 756.31L180.833 754.274L179.832 752.747L178.331 750.202L176.33 747.148L174.83 743.076L172.829 741.039L171.828 739.003L170.828 736.967Z" fill="#1A1A1A" fill-opacity="0.2" stroke="#1A1A1A" stroke-opacity="0.2"/>
<path d="M160.58 700.924L159.08 699.396L150.075 707.541L142.571 717.212L135.568 727.902L128.064 743.173L125.062 754.371V767.097V778.805L126.563 784.404L130.065 788.476L135.294 793.335L139.07 789.494L145.073 784.404L152.076 778.296L160.08 773.205L166.083 770.151L172.086 766.079L173.087 765.4L172.586 765.061L170.085 763.534V757.934L171.086 748.263L172.086 743.173L170.085 736.555V735.028L169.585 734.519L169.085 731.974L168.584 730.956V727.902L167.584 726.884V723.83L166.583 722.303V717.212L165.583 715.685V710.086L164.582 708.559V703.978L163.582 701.942L160.58 700.924Z" fill="#222222" fill-opacity="0.2"/>
<path d="M89.0441 743.172L87.5434 746.735V754.371L86.0426 768.115L84.0416 776.768L81.0401 784.403L78.5389 791.021L77.0381 797.129L75.0371 801.71V807.31V814.436L77.0381 821.053L81.0401 826.144L84.0416 827.671H93.5464L99.0491 826.144L105.552 821.053L113.556 814.436L121.56 807.31L127.063 801.71L132.566 796.111L135.294 793.335L130.065 788.476L126.563 784.403L125.062 778.804V767.097V754.371L128.064 743.172L135.567 727.902L142.571 717.212L150.075 707.54L159.079 699.396V693.797L160.08 690.743L161.08 685.652L161.58 680.562V670.891L160.08 671.4L157.078 673.436L153.576 675.981L149.574 680.053L144.572 684.125L138.069 689.725L129.564 698.378L122.061 706.013L118.059 710.086L113.556 715.176L108.054 721.284L105.052 724.338L102.551 726.374H96.0476L93.5464 730.956L91.5454 735.028L90.0446 739.609L89.0441 743.172Z" fill="#2E2E2E" fill-opacity="0.2"/>
<path d="M23.5118 918.786L28.5143 927.439L39.0195 932.53L41.5208 939.656L46.5233 944.746L53.0265 947.291L61.0305 955.945L66.5333 959.508L63.5318 952.891L57.0285 944.746L49.5248 934.566L46.023 926.421L43.0215 916.75L51.5258 927.439L61.0305 936.602L66.5333 941.692L72.5363 944.746L77.0385 948.819L78.039 945.764V939.656L77.0385 934.566L74.5373 927.439V918.786L78.039 929.985L82.041 934.057L83.0415 941.692L87.0435 944.746V939.656L88.044 934.566V926.421V918.277L91.0455 911.66L93.0465 907.587L95.0475 904.533L97.0485 902.497L99.5498 900.97H104.052L107.054 902.497L112.056 904.533L118.059 905.551H127.064H133.067L138.069 906.569H145.573H153.077H159.08L165.583 904.533L171.086 904.024L176.088 902.497L172.586 900.97L166.583 899.952L163.082 898.425L157.079 896.898L152.076 896.389L146.573 894.353L145.573 892.317L148.074 891.808H153.077H160.08L170.085 889.771L179.09 887.226L184.592 884.681L194.097 881.627L202.601 879.082H207.104L204.602 880.609L198.599 883.663L193.597 886.717L192.596 887.226L192.096 888.244L192.596 889.262L195.098 889.771L201.101 889.262L207.104 888.244L213.607 886.717L218.109 885.19L223.612 883.663L229.615 880.609L234.117 878.573L238.619 876.537L242.621 873.992L246.123 871.956V871.447L245.123 870.938L240.12 870.429L236.618 869.919L233.617 868.901L230.615 867.883L234.117 866.865L237.619 865.338L242.621 864.32H251.126H257.129L262.131 863.302L267.634 861.775H269.135V860.757L265.133 859.739L260.13 859.23L255.128 857.703H253.627L258.129 857.194H263.632H269.635H277.139H285.143H291.646L305.153 855.667L315.658 854.14L327.664 852.104L333.167 850.067L341.171 848.031L350.675 846.504H360.18L367.184 847.013L365.183 849.049L361.681 850.577L360.18 854.649L366.183 852.104L373.187 848.031L381.691 845.486L385.693 842.941L400.2 839.887L408.204 837.851L417.709 836.324L421.711 835.815L427.214 835.306L433.217 834.797H440.72L445.723 835.815L450.725 837.851L456.728 839.378L462.731 840.905L469.235 843.45L476.238 847.013L479.74 849.049L485.243 851.086L488.744 853.122L491.746 855.158L496.248 857.703L499.75 860.248L502.501 861.521L505.253 862.793L508.254 863.302L512.756 864.32L515.758 865.847L521.761 866.356H529.265H534.767L540.27 865.847L544.772 863.811H549.275H559.78L555.278 859.739L554.277 858.721H555.778L557.779 859.739L561.781 862.284L566.784 864.829L569.785 865.338L572.286 865.847L565.283 859.739L562.781 856.685L554.777 851.086L551.776 848.031L547.274 845.486L542.771 841.923L537.769 838.36L531.766 833.779L519.76 830.725L505.753 827.67L494.747 822.071L478.739 815.963L465.733 812.909L443.722 809.854L436.218 805.782L414.207 800.692H402.701L390.695 802.219L379.69 804.255H356.678H329.665L304.152 805.782H283.142L265.633 808.836L251.626 811.891L237.119 814.945L223.112 816.981H203.602L199.1 814.945V812.909L206.603 810.872L218.109 805.782L229.115 800.183L241.121 795.093L259.13 784.403L272.636 772.187L251.626 780.331L237.119 784.403L224.612 786.948L206.603 788.984L193.097 791.53L179.09 793.566L175.088 790.002L180.59 779.313L189.595 768.623H193.097L202.601 758.443L214.107 750.807L224.612 748.262V760.479L231.616 753.862L237.119 751.825L244.622 746.735L255.128 738.082L258.129 732.992L269.635 724.847L281.641 718.739L273.637 719.757L251.126 727.392L232.116 737.064L210.105 745.208L197.599 749.28L189.595 753.353L185.093 755.898L178.589 760.479L173.587 763.872L172.586 764.551L166.583 768.623L160.58 771.677L152.576 776.768L145.573 782.876L139.57 787.966L135.795 791.808L133.067 794.584L127.564 800.183L122.061 805.782L114.057 812.909L106.053 819.526L99.5498 824.616L94.047 826.143H84.5423L81.5408 824.616L77.5388 819.526L75.5378 812.909V805.782V800.183L77.5388 795.602L79.0395 789.493L81.5408 782.876L84.5423 775.241L86.5433 766.587L88.044 752.844V745.208H86.5433L84.5423 742.663V731.973L84.042 729.428V721.284L84.5423 719.248L85.5428 709.576L86.5433 699.905L87.0435 688.706V686.161H85.5428L84.042 687.179L80.04 690.233L75.0375 695.833L71.0355 700.414L64.5323 707.54L61.0305 712.63L57.0285 718.23L54.5273 721.793L51.5258 727.392L49.0245 732.482L45.5228 738.082L43.0215 743.681L40.02 748.262L37.5188 753.862L34.5173 759.461L32.016 765.06L30.015 770.15L28.014 774.732L26.013 779.313L24.012 783.894L22.011 788.475L20.5103 792.039L18.5093 796.62L16.5083 801.71L14.5073 806.291L14.007 808.327L13.0065 810.872L12.5063 813.927L11.5058 816.472L10.005 817.49H6.50325L4.50225 820.035L3.0015 822.58L2.001 824.616L1.0005 827.161L0 831.743V850.577L1.0005 855.158L1.50075 860.757L4.50225 870.938L7.0035 879.591L10.005 889.262L13.5068 898.934L19.5098 911.151L23.5118 918.786Z" fill="#2E2E2E" fill-opacity="0.2"/>
<path d="M664.973 967.444L662.472 965.407L656.969 962.862L653.967 959.808L649.965 957.263L645.963 954.209L640.461 951.155L636.459 949.628L630.456 948.61L623.952 948.101L616.449 949.628L607.444 952.173L599.94 955.142L603.942 955.736L606.444 958.281L609.945 961.335L613.447 963.88L617.449 965.916L622.452 968.971L627.954 971.007L630.456 973.043L636.459 975.079L631.956 977.115H626.454L623.952 979.151L620.951 980.678L624.453 983.223L627.954 984.75L635.458 987.296L640.961 987.805L644.963 989.332L648.465 991.368H655.468L660.471 987.296L671.476 983.223L676.979 982.714L678.48 980.678L676.979 977.624L675.478 975.079L674.478 973.043L669.475 969.989L664.973 967.444Z" fill="#2E2E2E" fill-opacity="0.2"/>
<path d="M613.807 1014.99L617.309 1013.47L621.811 1010.41L625.813 1006.85L631.316 1003.28L636.318 1000.23H624.812L617.309 1003.28H604.802L598.299 1004.3H586.793H577.789H568.284H559.279H548.774L539.77 1005.83H527.263H513.757L504.752 1004.3L497.248 1003.28H492.746L486.243 1001.25L480.74 1000.23L474.737 998.704L468.734 997.176L463.231 995.14L459.229 992.595H456.228L453.226 992.086V990.05L456.728 988.014L461.731 986.996L467.734 985.469L472.736 983.433L478.239 981.397L482.741 978.852L487.243 976.815L491.746 973.761L494.247 971.216L495.748 967.653L493.246 967.144L488.744 968.671L483.742 970.707L478.239 972.234L472.236 973.252L467.233 974.27L463.231 975.288L457.729 976.815H450.225H443.722H437.218H431.716H425.713H420.21H415.207H410.205H405.703L399.7 975.797L390.195 975.288L383.191 974.27L374.187 973.252L367.183 971.725L361.681 970.198L354.677 968.162L348.174 966.635L340.67 965.108L335.668 962.054L329.665 961.036L325.162 958.49L321.16 957.981V959.509L323.161 963.072L327.664 966.635L331.666 968.671L335.668 970.707L341.671 975.288L347.173 978.342L351.676 980.888L357.679 982.415L361.681 984.96L367.183 986.487L370.685 988.523L372.186 989.541V991.068L371.185 992.086L369.184 992.595L364.182 994.122H357.178L351.175 993.613L341.671 992.595H330.665H324.162H318.159L311.155 992.086L304.652 991.577L294.147 990.05L284.142 988.523L275.638 986.996L268.634 984.96L259.63 981.906L252.626 979.87L245.623 977.833L239.62 976.815L233.617 974.27H229.615V975.797L231.616 978.342L240.62 983.433L245.623 986.996L256.628 992.086L266.633 996.158L276.638 998.194L284.142 1000.74L294.147 1002.78L299.65 1003.28L301.651 1004.81L302.151 1006.85L299.65 1007.36H296.148L285.142 1006.85H275.638L261.631 1006.34L249.625 1005.83L237.619 1005.32L228.114 1004.81L223.111 1003.79L216.608 1002.78L205.603 1000.74L199.6 999.722L192.596 998.194L189.094 996.158L184.092 995.14L183.091 996.158V999.722L184.592 1001.25L189.094 1003.79L193.597 1006.34L197.599 1009.39L196.598 1011.94H192.596L189.094 1012.45H186.593L181.09 1012.96H175.087H170.585H166.583H163.081H157.078H153.076H150.075L145.072 1011.94L141.07 1011.43H137.068L141.07 1013.47L145.072 1014.48L150.075 1016.01L159.58 1018.05L168.584 1019.57L179.089 1020.59L186.593 1021.61L192.596 1022.12L197.599 1022.63H204.102L208.104 1021.61L210.105 1019.06L212.106 1018.56H221.611L225.112 1019.57L231.616 1020.59L238.619 1021.61L242.121 1022.63L249.625 1023.65L258.629 1024.66L263.632 1025.68L270.135 1026.7H278.139L288.644 1027.72L302.651 1029.25L309.154 1030.26H324.162L335.668 1031.28H347.674L364.182 1031.79H441.721H556.278L559.279 1031.28H562.781L568.284 1030.26L572.786 1029.25L577.789 1028.23L580.79 1027.72H584.292L589.795 1025.68L597.298 1022.63L602.301 1020.59L606.303 1019.06L609.805 1017.03L613.807 1014.99Z" fill="#1A1A1A" fill-opacity="0.2"/>
<path d="M131.566 1010.41L137.569 1011.43H141.571L145.573 1011.94L150.575 1012.96H153.577H157.579H163.582H167.083H171.085H175.588H181.591L187.093 1012.45H189.595L193.096 1011.94H197.098L198.099 1009.39L194.097 1006.34L189.595 1003.79L185.092 1001.25L183.592 999.722V996.158L184.592 995.14L189.595 996.158L193.096 998.195L200.1 999.722L206.103 1000.74L217.108 1002.78L223.612 1003.79L228.614 1004.81L238.119 1005.32L250.125 1005.83L262.131 1006.34L276.138 1006.85H285.643L296.648 1007.36H300.15L302.651 1006.85L302.151 1004.81L300.15 1003.28L294.647 1002.78L284.642 1000.74L277.139 998.195L267.133 996.158L257.128 992.086L246.123 986.996L241.12 983.433L232.116 978.343L230.115 975.797V974.27H234.117L240.12 976.815L246.123 977.834L253.126 979.87L260.13 981.906L269.135 984.96L276.138 986.996L284.642 988.523L294.647 990.05L305.153 991.577L311.656 992.086L318.659 992.595H324.662H331.166H342.171L351.676 993.613L357.679 994.122H364.682L369.685 992.595L371.686 992.086L372.686 991.068V989.541L371.186 988.523L367.684 986.487L362.181 984.96L358.179 982.415L352.176 980.888L347.674 978.343L342.171 975.288L336.168 970.707L332.166 968.671L328.164 966.635L323.662 963.072L321.661 959.509V957.982L325.663 958.491L330.165 961.036L336.168 962.054L341.171 965.108L348.674 966.635L355.178 968.162L362.181 970.198L367.684 971.725L374.687 973.252L383.692 974.27L390.695 975.288L400.2 975.797L406.203 976.815H410.705H415.708H420.71H426.213H432.216H437.719H444.222H450.725H458.229L463.732 975.288L467.734 974.27L472.736 973.252L478.739 972.234L484.242 970.707L489.245 968.671L493.747 967.144L496.248 967.653L494.747 971.216L492.246 973.761L487.744 976.815L483.242 978.852L478.739 981.397L473.237 983.433L468.234 985.469L462.231 986.996L457.229 988.014L453.727 990.05V992.086L456.728 992.595H459.73L463.732 995.14L469.235 997.177L475.238 998.704L481.241 1000.23L486.743 1001.25L493.247 1003.28H497.749L505.253 1004.3L514.257 1005.83H527.764H540.27L549.275 1004.3H559.78H568.784H578.289H587.294H598.799L605.303 1003.28H617.809L625.313 1000.23H636.818L641.321 997.686L649.825 993.104L655.328 991.577H648.324L644.822 989.541L640.82 988.014L635.318 987.505L627.814 984.96L624.312 983.433L620.81 980.888L623.812 979.361L626.313 977.325H631.816L636.318 975.288L630.315 973.252L627.814 971.216L622.311 969.18L617.309 966.126L613.307 964.09L609.805 961.545L606.303 958.491L603.802 955.945L599.8 955.352L598.299 955.945L588.294 959L579.29 960.527L573.287 961.545H562.781H549.275L541.271 960.527L530.765 957.982L521.261 953.909L511.256 948.31L496.248 940.675L485.743 934.566L476.738 928.967L470.735 924.895L463.232 920.823L453.727 916.241L446.723 912.678L436.718 909.115L429.715 907.079L421.711 906.061L412.706 905.552L406.203 905.043L396.698 904.025H389.195L387.694 903.007L389.195 901.989L393.197 901.48L396.698 900.462L399.2 899.444L402.701 898.425L405.703 896.898L408.704 894.862H389.195L383.692 896.898L376.188 898.425L368.684 899.444L358.679 901.48L350.175 903.007L341.171 904.025L333.167 906.57L322.661 908.097L315.658 909.115L309.655 910.642L301.151 912.678L295.148 913.696L290.145 914.714L285.643 916.241L282.641 916.75L277.139 917.259L275.638 918.278L276.638 919.296L284.142 919.805L292.646 920.314L297.649 921.332L304.152 922.35L307.154 922.859H309.655L310.655 923.368L310.155 924.386L305.653 925.404L303.152 926.422L297.649 927.949L293.647 929.476L287.644 931.003L282.141 933.039L274.637 936.093L267.133 938.13L260.13 939.148L253.627 941.693L242.121 943.729L236.618 945.765L232.116 947.292H227.113L225.613 947.801V948.819H229.615H235.117L241.12 948.31L249.124 947.292L252.626 946.274L259.63 945.765L257.629 947.801L254.627 949.837L250.125 951.364L246.123 952.891L236.118 954.927L229.114 957.472L220.61 958.491L211.606 959.509L202.101 960.527H193.096H186.093H176.088H166.083L155.077 959.509L147.574 958.491L135.568 955.945L126.563 952.891L120.56 950.346L117.559 950.855V953.909L119.059 957.982L122.561 964.09L126.563 971.216L134.567 978.852L139.069 983.433L144.072 986.487L146.573 990.05L142.571 989.032L139.57 988.014L134.567 985.469L130.565 981.906L128.064 980.379V983.433L130.565 986.487L133.066 990.05L134.567 992.595L135.568 994.122H133.066L128.064 992.595L122.061 992.086L116.058 991.068H103.051H96.5482L90.0449 990.559L96.5482 994.122L102.551 998.195L107.053 1000.74L110.555 1002.78L116.058 1004.81L125.563 1008.38L131.566 1010.41Z" fill="#222222" fill-opacity="0.2"/>
<path d="M82.9003 985.469L89.9038 990.559L96.4071 991.068H102.91H115.917L121.92 992.086L127.923 992.595L132.925 994.122H135.427L134.426 992.595L132.925 990.05L130.424 986.487L127.923 983.432V980.378L130.424 981.905L134.426 985.469L139.429 988.014L142.43 989.032L146.432 990.05L143.931 986.487L138.928 983.432L134.426 978.851L126.422 971.216L122.42 964.089L118.918 957.981L117.418 953.909V950.855L120.419 950.346L126.422 952.891L135.427 955.945L147.433 958.49L154.936 959.508L165.942 960.526H175.947H185.952H192.955H201.96L211.465 959.508L220.469 958.49L228.973 957.472L235.977 954.927L245.982 952.891L249.984 951.364L254.486 949.837L257.488 947.801L259.489 945.765L252.485 946.274L248.983 947.292L240.979 948.31L234.976 948.819H229.474H225.472V947.801L226.972 947.292H231.975L236.477 945.765L241.98 943.728L253.486 941.692L259.989 939.147L266.992 938.129L274.496 936.093L282 933.039L287.503 931.003L293.506 929.476L297.508 927.949L303.01 926.422L305.512 925.403L310.014 924.385L310.514 923.367L309.514 922.858H307.012L304.011 922.349L297.508 921.331L292.505 920.313L284.001 919.804L276.497 919.295L275.497 918.277L276.997 917.259L282.5 916.75L285.502 916.241L290.004 914.714L295.006 913.696L301.009 912.678L309.514 910.642L315.517 909.115L322.52 908.097L333.025 906.57L341.029 904.024L350.034 903.006L358.538 901.479L368.543 899.443L376.047 898.425L383.551 896.898L389.053 894.862H408.563L418.568 889.263L428.073 884.172L435.076 879.082L441.58 875.01L447.082 870.938L452.085 866.356L459.589 862.793L468.093 859.909L468.593 859.739L475.597 858.721H490.104L496.107 860.248L502.36 861.521L499.609 860.248L496.107 857.703L491.605 855.158L488.603 853.122L485.102 851.086L479.599 849.05L476.097 847.013L469.094 843.45L462.59 840.905L456.587 839.378L450.584 837.851L445.582 835.815L440.579 834.797H433.075L427.072 835.306L421.57 835.815L417.568 836.324L408.063 837.851L400.059 839.887L385.552 842.941L381.55 845.486L373.045 848.032L366.042 852.104L360.039 854.649L361.54 850.577L365.041 849.05L367.042 847.013L360.039 846.504H350.534L341.029 848.032L333.025 850.068L327.523 852.104L315.517 854.14L305.011 855.667L291.505 857.194H285.001H276.997H269.494H263.491H257.988L253.486 857.703H254.986L259.989 859.23L264.991 859.739L268.993 860.757V861.775H267.493L261.99 863.302L256.987 864.32H250.984H242.48L237.478 865.338L233.976 866.866L230.474 867.884L233.476 868.902L236.477 869.92L239.979 870.429L244.981 870.938L245.982 871.447V871.956L242.48 873.992L238.478 876.537L233.976 878.573L229.474 880.609L223.471 883.663L217.968 885.19L213.466 886.718L206.962 888.245L200.959 889.263L194.956 889.772L192.455 889.263L191.955 888.245L192.455 887.227L193.456 886.718L198.458 883.663L204.461 880.609L206.962 879.082H202.46L193.956 881.627L184.451 884.681L178.948 887.227L169.944 889.772L159.939 891.808H152.935H147.933L145.432 892.317L146.432 894.353L151.935 896.389L156.937 896.898L162.94 898.425L166.442 899.952L172.445 900.97L175.947 902.497L170.944 904.024L165.442 904.533L158.938 906.57H152.935H145.432H137.928L132.925 905.551H126.922H117.918L111.915 904.533L106.912 902.497L103.911 900.97H99.4086L96.9073 902.497L94.9063 904.533L92.9053 907.588L90.9043 911.66L87.9028 918.277V926.422V934.566L86.9023 939.656V944.746L82.9003 941.692L81.8998 934.057L77.8978 929.985L74.3961 918.786V927.44L76.8973 934.566L77.8978 939.656V945.765L76.8973 948.819L72.3951 944.746L66.3921 941.692L60.8893 936.602L51.3846 927.44L42.8803 916.75L45.8818 926.422L49.3836 934.566L56.8873 944.746L63.3906 952.891L66.3921 959.508L60.8893 955.945L52.8853 947.292L46.3821 944.746L41.3796 939.656L38.8783 932.53L28.373 927.44L34.8763 936.602L41.3796 945.765L49.3836 955.945L58.3881 965.617L63.3906 970.198L68.8933 975.797L74.3961 979.869L82.9003 985.469Z" fill="#2E2E2E" fill-opacity="0.2"/>
<path d="M262.632 734.669L255.128 738.232L244.623 746.885L237.119 751.975L231.616 754.012L224.613 760.629V748.412L214.107 750.957L202.602 758.593L193.097 768.773H189.595L180.591 779.463L175.088 790.152L179.09 793.716L193.097 791.68L206.604 789.134L224.613 787.098L237.119 784.553L251.626 780.481L272.637 772.337L259.13 784.553L241.121 795.243L229.115 800.333L218.109 805.932L206.604 811.023L199.1 813.059V815.095L203.602 817.131H223.112L237.119 815.095L251.626 812.041L265.633 808.986L283.142 805.932H304.152L329.665 804.405H356.679H379.69L390.696 802.369L402.702 800.842H414.207L436.218 805.932L443.722 810.004L465.733 813.059L478.74 816.113L494.748 822.221L505.753 827.82L519.76 830.875L531.766 833.929L526.764 829.856L522.262 826.802L516.759 822.221L512.757 818.658L509.255 816.622L505.753 814.077L502.752 811.532L500.25 809.495L499.25 808.477L502.251 808.986L505.253 810.004L507.754 811.023L511.756 812.041L515.758 813.059L519.76 814.586L523.262 816.622L527.264 818.658L530.766 820.694L533.767 821.712H535.768V820.694L531.766 817.131L526.764 812.55L523.262 809.495L519.26 805.932L513.757 800.842L508.755 797.279L504.253 794.225L498.75 790.661L493.247 787.098L486.243 783.026L479.24 779.463L472.737 775.9L464.733 771.828L460.731 770.3L456.228 768.264L451.726 766.228L446.223 764.192L440.22 762.665L434.217 760.629L427.214 758.593L420.21 757.066L414.207 756.048L407.204 755.03L399.7 754.521L394.197 754.012L390.195 752.994L391.196 751.975L393.697 750.448L397.699 748.921L402.702 748.412L408.204 747.394L418.209 746.376L419.21 745.867L418.209 744.849L412.206 743.831L405.203 742.813L397.199 741.795H389.695L378.189 740.777L366.183 741.795L361.181 742.813H351.176H347.174L346.674 741.286L350.175 739.759L353.177 737.723L358.179 735.178L364.182 732.632L368.184 730.596L372.186 728.56L375.688 727.033L380.19 725.506L383.692 723.979L387.194 722.961L389.195 720.416L388.695 719.398H377.189H366.684L360.681 720.416L356.178 720.925L351.176 721.943L345.173 722.961L350.175 720.925L352.176 719.907L356.178 718.889L360.18 717.362L363.682 714.817H358.68L353.177 715.835L349.675 716.344L344.172 717.871L338.67 719.398L327.664 722.961L319.66 726.015L313.157 728.56L306.153 731.614L300.15 734.16L295.648 736.196L288.144 739.25L282.141 741.795L277.639 743.831L278.64 742.304L284.142 739.25L290.646 735.178L296.148 731.614L304.653 727.033L310.656 722.961L315.158 720.416L322.161 717.871L333.167 713.799L339.67 710.235L330.666 710.744L322.662 711.762L315.158 713.29L306.153 715.835L298.65 717.871L287.644 721.943L277.139 726.524L269.135 730.596L262.632 734.669Z" fill="#3A3A3A" fill-opacity="0.2"/>
<path d="M620.31 926.571L617.308 923.517L614.807 923.008L610.305 920.972L602.801 918.427L594.297 914.863L586.793 910.791L577.288 907.737L566.783 903.665L556.278 897.557L548.274 893.993L540.77 889.412L530.265 884.322L520.26 878.723L514.757 875.159L507.754 871.087L501.25 867.524L495.247 864.47L488.744 862.434L479.74 860.907L467.734 860.058L459.229 862.943L451.726 866.506L446.723 871.087L441.22 875.159L434.717 879.232L427.714 884.322L418.209 889.412L408.204 895.011L405.202 897.048L402.201 898.575L398.699 899.593L396.198 900.611L392.696 901.629L388.694 902.138L387.193 903.156L388.694 904.174H396.198L408.204 899.593L416.708 896.03L424.212 893.484L427.714 891.448L434.717 889.412L442.721 888.903L455.728 888.394L464.732 890.939L471.235 894.502L477.238 900.611L482.741 905.701L488.244 910.791L495.247 914.354L502.251 918.427L503.752 921.99L511.255 926.571L517.759 928.607L525.262 932.679L531.766 934.715L539.269 935.734L545.272 937.77L553.276 939.297L560.78 938.788H565.282L571.786 939.297L575.788 940.315H580.29L582.791 939.806L587.794 937.77L592.296 935.734L598.299 934.715H603.301H609.304L614.807 935.734L623.311 937.77L628.314 941.333L632.816 943.878L629.815 939.297L627.313 934.715L623.812 931.152L620.31 926.571Z" fill="#2E2E2E" fill-opacity="0.2"/>
<path d="M635.818 947.801L632.817 944.238L628.314 941.693L623.312 938.129L614.808 936.093L609.305 935.075H603.302H598.299L592.296 936.093L587.794 938.129L582.792 940.166L580.29 940.675H575.788L571.786 939.656L565.283 939.147H560.781L553.277 939.656L545.273 938.129L539.27 936.093L531.766 935.075L525.263 933.039L517.759 928.967L511.256 926.931L503.752 922.35L502.251 918.786L495.248 914.714L488.244 911.151L482.742 906.061L477.239 900.971L471.236 894.862L464.733 891.299L455.728 888.754L442.722 889.263L434.718 889.772L427.714 891.808L424.212 893.844L416.709 896.389L408.204 899.952L396.198 904.534L405.703 905.552L412.206 906.061L421.211 906.57L429.215 907.588L436.218 909.624L446.223 913.187L453.227 916.75L462.732 921.332L470.235 925.404L476.238 929.476L485.243 935.075L495.748 941.184L510.756 948.819L520.761 954.418L530.265 958.49L540.771 961.036L548.775 962.054H562.281H572.787L578.79 961.036L587.794 959.509L597.799 956.454L599.3 955.86L606.804 952.891L615.808 950.346L623.312 948.819L629.815 949.328L635.818 950.346L640.821 951.873L635.818 947.801Z" fill="#222222" fill-opacity="0.2"/>
<path d="M566.283 869.052L559.78 863.961H549.275H544.773L540.27 865.997L534.768 866.506H529.265H521.761L515.758 865.997L512.757 864.47L508.254 863.452L505.253 862.943L502.502 861.671L496.248 860.398L490.245 858.871H475.738L468.735 859.889L468.234 860.059L480.24 860.907L489.245 862.434L495.748 864.47L501.751 867.525L508.254 871.088L515.258 875.16L520.761 878.723L530.766 884.322L541.271 889.413L548.775 893.994L556.779 897.557L567.284 903.665L577.789 907.738L587.294 910.792L594.798 914.864L603.302 918.427L610.806 920.972L615.308 923.008L617.809 923.517L615.308 920.463L614.808 919.445H621.311L626.814 918.427L632.316 917.918L636.819 916.9L641.321 915.882L641.821 914.864L641.321 913.846H637.819L629.815 911.81L622.311 909.774L613.807 905.192L606.303 900.611L600.3 897.048L593.797 892.467L587.294 885.849L577.789 878.214L571.786 873.633L566.283 869.052Z" fill="#2E2E2E" fill-opacity="0.2" stroke="#2E2E2E" stroke-opacity="0.2"/>
<path d="M392.337 463.058H396.339L397.006 463.567H402.842L408.845 463.058L415.849 461.022L423.353 459.495L431.857 455.931L442.862 450.841L449.366 447.278V460.513V482.401V501.744L450.866 508.87L451.867 517.524L453.368 528.722L455.869 537.885L458.37 547.556H458.87L459.371 546.029L459.871 541.957L461.372 538.394L462.372 534.83L464.373 530.758L465.874 526.177L467.875 522.105L468.875 519.051L469.876 517.015L470.376 516.505H470.876V518.033L471.877 525.159L472.377 530.758L473.378 536.867L475.379 542.975L477.38 548.574L478.88 554.682L480.881 558.755L481.882 562.318L484.883 568.935L489.886 581.152L493.888 589.805L496.389 593.368V591.332V589.805L494.888 586.242L493.888 580.643L492.387 575.553L491.387 569.953L490.386 565.372L489.386 560.282L492.387 565.881L494.888 573.007L497.39 580.643L501.392 588.787L505.894 596.423L509.396 604.058L511.897 609.148V608.639L512.397 604.058L512.897 599.477L513.898 594.895V588.787L514.398 588.278L514.898 588.787L515.899 594.895L518.4 603.04L521.902 613.22L524.903 622.383L526.404 625.692L527.905 629V623.91V616.784V606.094L528.405 599.986L529.406 592.35L531.907 584.206L534.908 575.043L538.41 567.408L542.412 560.282L546.414 554.682L550.416 549.592L553.918 543.993L557.92 539.921L558.42 543.993L556.919 555.191L555.919 566.899V588.787L555.419 609.148L556.919 619.838L559.921 631.036V637.654L560.921 644.78L562.422 645.798V643.762L563.423 640.199V634.09L564.923 628.491L566.924 622.892L568.425 622.383L569.426 625.946V632.054V637.654V642.235L569.926 648.852L571.427 653.943V661.069L573.428 664.123L574.928 658.015L576.429 651.906L579.931 640.199L582.432 635.109V644.78L581.432 656.997V666.159L579.931 678.885L581.432 684.993L583.433 684.484L584.433 687.029L583.433 694.665L582.432 700.773H585.934L589.436 692.119L594.438 686.011L597.69 684.23L600.941 682.448L605.444 680.921L608.945 662.596L610.946 644.78L614.948 620.856L616.449 607.112L618.45 596.932L622.452 609.148L624.953 620.856L626.454 635.109L628.955 646.816L627.955 664.123L623.953 680.921L620.951 692.119L627.955 683.466L633.458 675.831L636.959 671.249L641.962 664.123L645.464 658.015L650.466 649.87L654.968 639.181L659.971 626.964L662.472 616.784L664.473 606.094L666.474 594.895L667.475 586.751L668.475 591.841L669.476 602.022V610.675L670.476 616.784L672.977 609.657L675.979 602.022L678.98 590.823L680.481 585.224L681.982 579.625L682.482 570.971L682.982 563.336V545.011V535.339V528.213L681.982 522.614L680.981 517.524V514.469L682.982 516.505L685.484 521.087L688.485 525.668L691.487 532.285L693.988 538.903L696.489 545.011L698.99 553.664L700.991 562.827L701.492 568.426L702.992 570.971L703.993 566.899L706.494 559.264L707.495 550.61V540.939L706.494 529.486L705.494 517.524L702.492 506.325L698.99 496.653L695.489 488.509L691.487 480.365L686.484 470.693L680.981 462.04L671.977 449.314L663.973 440.152L654.468 429.971L644.963 420.3L633.458 409.61L624.453 401.975L620.451 399.684L608.445 395.357H604.943L606.444 397.393L614.448 404.52L619.951 409.61L626.954 417.754H624.453L616.449 413.173L609.946 408.592L601.442 401.975L589.936 395.357L576.429 390.776L561.422 387.213L558.42 388.74L563.423 392.303L573.428 399.939L585.434 408.592L598.44 421.318L608.445 435.061L615.949 451.35L619.951 467.13L621.952 480.365V489.527L619.951 499.708L618.45 491.054L615.949 480.365L612.447 470.693L607.445 460.513L604.943 458.477L603.443 460.513L604.943 468.657L607.445 476.292L609.946 486.982V499.708V513.96L607.445 528.722L603.443 546.029L600.441 554.682V547.556L598.94 538.394L596.439 528.722L592.937 513.96L586.434 505.816L580.931 497.672L571.427 492.072L566.424 491.054L563.423 484.437L556.919 476.292L546.414 463.567L532.407 453.386L519.401 446.769L504.893 438.625L487.885 435.57H473.878L454.868 437.606L438.86 444.224L420.351 449.823L405.844 452.877L390.336 454.913H378.33H365.324L353.818 452.877H343.813H343.312L344.313 454.913L344.813 455.931L348.815 459.495L351.317 461.531L354.318 462.549L359.321 464.076H370.826H385.834L392.337 463.058Z" fill="#3A3A3A" fill-opacity="0.2"/>
<path d="M583.591 694.665L584.592 687.029L587.093 673.286L589.203 664.123L591.095 644.78L593.096 623.91V596.423L596.598 613.221L598.099 646.816L599.099 668.705L597.848 684.23L594.597 686.011L589.594 692.12L586.093 700.773H582.591L583.591 694.665Z" fill="#3A3A3A" fill-opacity="0.2"/>
<path d="M532.166 637.654L528.164 629V623.91V616.784V606.094L528.664 599.986L529.665 592.351L532.166 584.206L535.168 575.044L538.669 567.408L542.671 560.282L546.673 554.683L550.675 549.592L554.177 543.993L558.179 539.921L558.679 543.993L557.179 555.192L556.178 566.899V588.787L555.678 609.148L557.179 619.838L560.18 631.037V637.654L561.181 644.78L562.681 645.798V643.762L563.682 640.199V634.091L565.183 628.491L567.184 622.892L568.684 622.383L569.685 625.946V632.055V637.654V642.235L570.185 648.852L571.686 653.943V661.069L573.687 664.123L575.188 658.015L576.688 651.907L580.19 640.199L582.691 635.109V644.78L581.691 656.997V666.159L580.19 678.885L581.691 684.993L583.692 684.484L584.692 687.029L583.692 694.665L582.691 700.773H586.193L589.695 692.12L594.697 686.011L597.949 684.23L601.201 682.448L605.703 680.921L609.205 662.596L611.206 644.78L615.208 620.856L616.708 607.112L618.709 596.932L622.711 609.148L625.213 620.856L626.713 635.109L629.215 646.816L628.214 664.123L624.212 680.921L621.211 692.12L613.707 700.773L610.705 703.573L605.703 704.336L603.202 707.39L601.201 708.409V704.336L600.2 706.372L598.199 708.918L596.698 711.972V716.044L595.698 718.589L593.697 719.607V717.571V712.99V707.39L592.196 712.99L589.695 717.571L586.193 723.679L582.191 732.333L577.189 740.986L572.186 746.585L570.685 739.968L569.185 726.733L567.184 711.972L566.183 696.701L564.682 686.011L563.182 690.084L561.681 700.773L559.68 708.918L557.179 711.972V708.918L555.678 698.228L553.677 688.556L551.676 674.813V662.596V653.434V649.871L550.675 650.889L548.174 661.069L546.173 667.686L545.173 675.831L544.172 682.448L543.172 674.813L541.671 666.159L540.67 659.542L539.17 655.47L535.668 645.798L532.166 637.654Z" fill="#2E2E2E" fill-opacity="0.2"/>
<path d="M545.272 696.701L544.271 682.449L545.272 675.831L546.272 667.687L548.273 661.07L550.775 650.889L551.775 649.871V653.434V662.597V674.813L553.776 688.557L555.777 698.229L557.278 708.918V711.972L559.779 708.918L561.78 700.774L563.281 690.084L564.782 686.012L566.282 696.701L567.283 711.972L569.284 726.734L570.785 739.969L572.285 746.586L577.288 740.987L582.291 732.333L586.293 723.68L589.794 717.572L592.296 712.99L593.796 707.391V712.99V717.572V719.608L595.797 718.59L596.798 716.044V711.972L598.299 708.918L600.3 706.373L601.3 704.337V708.409L603.301 707.391L605.802 704.337L610.805 703.573L607.803 706.373L605.802 710.445L603.301 724.698L602.145 734.369L598.799 762.366L596.298 785.272L594.297 809.705L591.795 835.157L590.295 857.045V880.969L590.545 889.368L587.293 886.059L585.292 884.452L580.29 875.37L576.287 865.189L571.785 851.445L568.784 840.247L564.281 823.958L560.279 806.142L555.777 787.308L551.775 762.366L548.774 736.406L547.842 726.734L546.272 710.445L545.272 696.701Z" fill="#2E2E2E" fill-opacity="0.2"/>
<path d="M332.524 439.134L334.525 441.679L337.027 444.733L339.528 448.296H347.032H354.535H387.052L395.556 447.278L403.56 444.224L415.566 438.625L425.571 433.026L438.077 426.917L449.583 421.827L462.589 416.737L468.592 415.21H470.093L471.094 417.755V419.791L464.59 421.318L455.086 423.863L445.081 427.935L438.077 430.48L433.075 433.026L425.571 437.607L416.566 442.697L409.063 446.769L401.559 449.823L397.223 450.841L392.054 451.86L387.552 452.878H377.047H354.035L365.541 454.914H378.547H390.553L406.061 452.878L420.568 449.823L439.078 444.224L455.086 437.607L474.095 435.571H488.102L505.111 438.625L519.618 446.769L532.625 453.387L546.632 463.567L557.137 476.293L563.64 484.437L566.642 491.055L571.644 492.073L581.149 497.672L586.652 505.816L593.155 513.961L596.657 528.722L599.158 538.394L600.659 547.556V554.683L603.66 546.029L607.662 528.722L610.163 513.961V499.708V486.982L607.662 476.293L605.161 468.657L603.66 460.513L605.161 458.477L607.662 460.513L612.665 470.693L616.166 480.365L618.668 491.055L620.168 499.708L622.169 489.527V480.365L620.168 467.13L616.166 451.351L608.663 435.062L598.658 421.318L585.651 408.592L573.645 399.939L563.64 392.303L558.638 388.74L561.639 387.213L576.647 390.776L590.153 395.358L601.659 401.975L610.163 408.592L616.667 413.174L624.671 417.755H627.172L620.168 409.61L614.666 404.52L606.662 397.394L605.161 395.358H608.663L620.669 399.684L616.667 397.394L610.664 393.831L606.662 390.776H612.164L623.67 392.303L620.669 388.74L614.666 383.141L606.662 378.56L596.657 375.506L590.153 373.47H581.649L576.647 371.942L581.649 364.816L588.152 361.253L596.657 358.199H600.659L593.155 351.581L585.651 349.036L575.146 347L566.642 343.437H558.638L548.633 342.419L532.625 342.754L531.124 343.437L514.115 351.581L490.103 364.307L477.097 371.942L471.685 375.506L460.088 383.141L449.583 391.285L439.078 400.448L428.072 412.156L420.568 421.827L415.066 429.462L411.064 433.026H409.063L406.061 428.953L403.06 423.863L395.556 417.755L383.05 411.646H378.547L366.541 409.61H358.037H354.035V411.646L353.035 416.737L350.533 424.372L348.032 429.971L343.53 432.517L339.028 433.535L335.526 436.08L332.524 439.134Z" fill="#3A3A3A" fill-opacity="0.2"/>
<path d="M340.669 450.632L343.671 452.668H344.171H354.176H377.188H387.693L392.195 451.65L397.364 450.632L401.7 449.614L409.204 446.56L416.707 442.487L425.712 437.397L433.216 432.816L438.218 430.271L445.222 427.726L455.227 423.653L464.732 421.108L471.235 419.581V417.545L470.234 415H468.734L462.731 416.527L449.724 421.617L438.218 426.708L425.712 432.816L415.707 438.415L403.701 444.014L395.697 447.069L387.193 448.087H354.676H347.173H339.669L340.669 450.632Z" fill="#1A1A1A" fill-opacity="0.2"/>
<path d="M328.023 435.212L332.525 438.775L335.526 435.721L339.028 433.175L343.53 432.157L348.033 429.612L350.534 424.013L353.035 416.378L354.036 411.287V409.251V402.634L352.035 400.598L348.533 398.562L347.032 397.544H338.028H334.526L333.525 396.526V396.017L332.025 396.526L320.519 403.652L312.015 410.269V413.833L315.016 420.959L321.019 428.594L328.023 435.212Z" fill="#121212" fill-opacity="0.2"/>
<path d="M336.167 393.471L333.666 396.016V396.526L334.667 397.544H338.168H347.173L348.674 398.562C360.957 387.533 387.893 361.81 397.365 347.15C398.476 342.06 399.799 330.759 396.197 326.28C399.032 325.771 404.902 325.567 405.702 328.825C409.037 318.136 414.907 292.684 411.705 276.395C412.372 277.244 414.206 281.078 416.207 289.63C418.208 279.11 421.31 255.016 417.708 242.8C419.209 242.46 425.112 244.53 436.718 255.525C437.385 243.818 440.72 216.636 448.724 201.569C448.39 202.926 449.524 207.982 456.728 217.348C456.561 210.731 457.628 195.155 463.231 185.789C464.898 193.594 470.034 209.306 477.238 209.713C477.571 198.175 479.439 172.859 484.241 163.901C486.601 163.392 493.765 166.751 503.539 184.262L503.251 176.626L504.251 168.482L506.753 156.774L509.254 148.63L512.255 138.958L514.757 131.832L513.256 132.341H510.755H502.751L496.748 132.85L489.744 135.395L484.742 137.431L481.74 138.449H479.239L478.238 138.195L471.735 144.049L465.732 150.157L459.729 155.756L454.226 162.883L453.226 165.428H452.225L452.726 162.374L453.226 158.301L453.726 154.229V152.193L453.226 151.175L452.225 152.193L449.724 155.756L447.223 161.356L444.722 165.428L443.221 169.5L442.22 172.554L441.22 173.572L440.72 172.554V171.027V165.428L441.22 156.774V152.193L440.72 151.175L437.218 156.774L434.717 162.883L431.715 171.536L429.714 176.117L426.212 169.5L423.711 162.883L419.209 152.702L413.706 140.994L409.204 131.323L402.701 119.615L393.196 104.345L387.693 96.2002L382.19 86.5287L372.686 71.7669L366.182 63.6225L359.179 56.4962L350.174 45.8066L347.173 43.7705H346.172L345.672 53.442L347.173 62.6045L350.174 73.294L351.175 80.9294V87.5467L355.677 100.781L360.68 115.543L364.682 127.251L366.683 135.395L369.184 143.031L371.685 152.702L374.186 161.356L376.688 168.991L379.689 178.662L381.69 184.262L383.191 190.879L385.692 197.496L387.693 206.15L390.194 215.821L390.695 221.93L392.195 227.529V232.619L391.695 235.673L390.695 237.709L386.192 248.908L382.691 258.07L379.689 267.742L377.688 276.395L376.688 280.468V290.139L377.688 293.193L381.69 299.811L385.692 304.392V307.955V314.572L387.693 317.117V328.316L385.692 340.024L382.691 347.15L373.686 357.84L356.177 374.128L336.167 393.471Z" fill="#3A3A3A" fill-opacity="0.2"/>
<path d="M400.7 219.385L396.198 229.566L394.197 214.295L393.196 201.06L390.194 190.371L387.693 180.699L384.191 168.483L379.689 156.266L376.688 145.576L371.685 130.306L364.682 109.436L360.68 94.6739L357.678 77.876L356.678 70.7496V65.1504V63.1143H357.678L359.679 65.1504L364.682 72.2767L371.685 82.4572L378.689 94.6739L381.94 101.037L385.192 107.4L390.695 115.448L393.196 119.107L400.2 131.833L407.703 146.595L411.205 156.266L415.707 168.483L419.209 179.172L420.71 184.771V188.844L419.209 191.389L416.458 195.206L413.706 199.024L406.203 208.696L401.486 217.858L400.7 219.385Z" fill="#2E2E2E" fill-opacity="0.2"/>
<path d="M413.706 198.769L406.203 208.44L401.486 217.603L398.699 206.404V198.769L396.198 187.57L393.196 175.354L386.693 158.556L382.191 141.249L379.689 124.451V111.216L381.941 100.781L385.192 107.144L390.695 115.193L389.194 118.852L387.693 124.451V131.577V140.231L393.196 152.447L398.699 168.227L402.701 176.372L409.204 188.588L416.458 194.951L413.706 198.769Z" fill="#2E2E2E" fill-opacity="0.2"/>
<path d="M420.71 188.429L419.209 190.974L416.458 194.792L409.204 188.429L402.701 176.213L398.699 168.068L393.196 152.289L387.693 140.072V131.418V124.292L389.194 118.693L390.695 115.034L393.196 118.693L400.2 131.418L407.703 146.18L411.205 155.852L415.707 168.068L419.209 178.758L420.71 184.357V188.429Z" fill="#222222" fill-opacity="0.2"/>
<path d="M349.374 82.4564L351.375 88.0557V81.4383L350.374 73.803L347.373 63.1134L345.872 53.9509L346.372 44.2794H347.373L350.374 46.3156L359.379 57.0051L366.382 64.1315L372.886 72.2759L382.39 87.0376L387.893 96.7091L393.396 104.854L402.901 120.124L409.404 131.832L413.906 141.503L419.409 153.211L423.911 163.392L426.412 170.009L429.914 176.626L431.915 172.045L434.917 163.392L437.418 157.283L440.92 151.684L441.42 152.702V157.283L440.92 165.937V171.536V173.063L441.42 174.081L442.42 173.063L443.421 170.009L444.922 165.937L447.423 161.864L449.924 156.265L452.425 152.702L453.426 151.684L453.926 152.702V154.738L453.426 158.81L452.926 162.882L452.425 165.937H453.426L454.426 163.392L459.929 156.265L465.932 150.666L471.935 144.558L478.438 138.704L477.438 138.449L465.432 128.778L454.927 118.597L439.919 105.872L424.411 92.6369L407.903 77.8752L393.896 65.1495L382.891 56.4961L375.387 50.8968L368.383 46.3156L359.879 41.2253L353.876 38.6802L349.374 37.6621H344.872L343.871 38.1711L342.37 39.6982L341.87 41.7343L342.37 50.3878L344.872 63.1134L346.873 73.2939L349.374 82.4564Z" fill="#0A0A0A" fill-opacity="0.2"/>
<path d="M352.176 400.807L354.177 402.844V409.461H358.179H366.683L378.689 411.497H383.191L395.697 417.605L403.201 423.714L406.203 428.804L409.204 432.876H411.205L415.207 429.313C401.6 388.591 415.541 363.479 424.212 356.013C417.808 301.853 432.549 286.277 440.72 285.259L439.719 280.677V273.551L440.72 272.024L443.221 269.479H452.726L458.729 271.515L462.231 273.551L464.732 280.677C465.065 281.017 465.882 286.684 466.483 306.638H474.237L481.74 308.165L488.744 309.692L496.748 311.219H510.755L576.788 309.692L595.797 314.273L612.306 320.381L623.811 327.508L634.817 337.688L643.821 348.378L647.823 358.049L651.325 364.667L654.327 366.703L652.826 361.103L651.325 353.977L649.324 345.324L646.323 335.143L643.821 329.035L640.82 322.417L634.817 314.273L631.315 307.147L627.813 302.056L626.813 300.02L628.814 301.038L631.315 304.092L638.319 311.728L643.821 318.345L649.324 325.472L646.323 315.291L642.321 305.62L636.818 295.948L628.814 285.259L619.309 274.06L609.304 264.388L601.3 257.262L591.295 249.627L583.291 243.009L574.287 234.865L565.782 227.739L555.277 214.504L549.774 206.869L546.273 197.706L542.771 182.944V168.692L544.272 156.984L546.273 144.258L549.774 132.042L553.776 119.316L557.778 111.172L561.28 102.009L564.782 95.3918L568.784 85.7203L574.287 79.103L579.289 72.4856L586.293 68.9225L596.298 67.3954L604.302 68.9225L610.805 71.9766L614.307 77.5759L617.308 85.7203V93.8647V103.536V115.753L615.807 128.988L613.306 141.713L610.805 153.93L609.304 165.637V176.072V187.017V197.706L611.305 205.341L614.807 216.031L617.808 224.684L620.81 231.302L622.811 227.739V219.594L624.312 212.468L627.813 216.031V205.341V200.251L630.815 190.071L635.817 187.017L639.319 187.526L639.819 179.381L640.32 170.728L641.32 160.547L642.821 151.385L643.821 141.713L644.322 130.006V103.536L643.821 90.3016L642.821 81.1391L641.32 72.4856L638.319 60.269L635.317 50.5975L631.815 41.4351L626.813 31.2545L622.811 24.1282L618.309 17.5108L612.806 12.4206L608.304 8.34837L606.303 6.82129H604.302L601.8 7.83934L597.298 11.4025L592.296 15.4747L583.791 24.1282L573.786 37.3629L563.281 53.1427L557.778 62.8142L550.775 76.5579L545.772 85.7203L540.27 97.9369L535.267 109.136L528.764 125.933L524.762 138.15L520.76 150.367L516.258 163.092L512.256 174.291L509.754 181.417L506.753 190.071L505.252 192.616H504.252L503.751 190.071L503.54 184.471C493.766 166.961 486.602 163.601 484.242 164.11C479.439 173.069 477.572 198.385 477.238 209.923C470.035 209.515 464.899 193.804 463.231 185.998C457.628 195.365 456.561 210.941 456.728 217.558C449.524 208.192 448.39 203.136 448.724 201.778C440.72 216.845 437.385 244.027 436.718 255.735C425.112 244.74 419.209 242.67 417.708 243.009C421.31 255.226 418.209 279.32 416.208 289.84C414.207 281.288 412.372 277.453 411.705 276.605C414.907 292.894 409.037 318.345 405.702 329.035C404.902 325.777 399.032 325.981 396.198 326.49C399.799 330.969 398.477 342.269 397.365 347.36C387.893 362.02 360.958 387.742 348.674 398.771L352.176 400.807Z" fill="#3A3A3A" fill-opacity="0.2"/>
<path d="M515.539 128.784L514.539 131.838L512.038 138.964L509.036 148.636L506.535 156.78L504.034 168.488L503.033 176.632L503.322 184.267L503.533 189.867L504.034 192.412H505.034L506.535 189.867L509.536 181.213L512.038 174.087L516.04 162.888L520.542 150.163L524.544 137.946L528.546 125.729L535.049 108.932L540.052 97.733L545.554 85.5164L550.557 76.3539L557.56 62.6102L563.063 52.9387L573.568 37.1589L583.574 23.9242L592.078 15.2708L597.08 11.1986L601.583 7.63539L604.084 6.61734H606.085L608.086 8.14442L612.588 12.2166L618.091 17.3069L622.593 23.9242L626.595 31.0506L631.598 41.2311L635.099 50.3936L638.101 60.0651L641.102 72.2817L642.603 80.9351L643.604 90.0976L644.104 103.332V129.802L643.604 141.509L642.603 151.181L641.102 160.343L640.102 170.524L639.602 179.177L639.101 187.322L640.102 186.813L641.603 182.74L642.603 177.141L644.604 173.069L646.605 175.868L646.105 171.542L646.605 165.433L647.606 160.343L648.606 153.726L649.607 146.09L650.607 138.455L651.608 128.784V107.914V85.5164L650.607 77.881L649.607 71.7727L648.106 63.6283L646.105 54.4658L643.103 45.8123L638.101 33.0867L632.598 22.9062L626.095 14.7618L619.592 9.16247L614.089 4.58123L608.086 1.01805L604.084 0H600.082H597.08L592.578 2.0361L586.075 7.12636L580.572 12.7257L574.069 21.3791L566.565 31.5596L562.063 38.686L556.06 47.8484L553.558 51.9207L548.556 60.0651L543.553 68.7185L538.051 78.899L534.049 86.0254L530.547 93.6608L526.045 103.332L523.043 109.441L520.042 117.076L515.539 128.784Z" fill="#0A0A0A" fill-opacity="0.2"/>
<path d="M564.564 94.8229L568.566 85.1514L574.069 93.2958L579.071 109.076V130.964L576.57 155.397L572.568 172.704L562.062 206.3L557.56 216.989L555.059 213.935L549.556 206.3L546.054 197.137L542.553 182.375V168.123L544.053 156.415L546.054 143.689L549.556 131.473L553.558 118.747L557.56 110.603L561.062 101.44L564.564 94.8229Z" fill="#1A1A1A" fill-opacity="0.2"/>
<path d="M610.805 153.571L609.304 165.278V168.332C606.303 169.69 599.699 175.459 597.298 187.675L596.298 168.332C590.461 185.959 576.788 222.948 568.784 229.895L565.782 227.379L557.778 217.199L562.281 206.509L572.786 172.914L576.788 155.607L579.289 131.173V109.285L574.287 93.5055L568.784 85.3611L574.287 78.7437L579.289 72.1264L586.293 68.5632L596.298 67.0361L604.302 68.5632L610.805 71.6174L614.307 77.2167L617.308 85.3611V89.4333V93.5055V103.177V115.394L615.807 128.628L613.306 141.354L610.805 153.571Z" fill="#2E2E2E" fill-opacity="0.2"/>
<path d="M614.3 76.8948L617.302 85.0392V89.1114C620.503 88.7042 625.639 102.176 627.807 108.963C631.142 84.7255 624.949 55.4094 618.302 40.3593C617.969 39.6059 617.635 38.8883 617.302 38.2088C611.699 26.8066 598.292 33.4579 592.289 38.2088C574.68 58.2737 572.946 73.3779 574.28 78.4219L579.283 71.8045L586.286 68.2414L596.291 66.7143L604.295 68.2414L610.798 71.2955L614.3 76.8948Z" fill="#2E2E2E" fill-opacity="0.2"/>
<path d="M627.813 204.482V199.391C625.412 186.768 626.812 133.727 627.813 108.785C625.645 101.998 620.509 88.5256 617.308 88.9329V93.0051V102.677V114.893L615.807 128.128L613.306 140.854L610.804 153.07L609.304 164.778V167.832V175.213V186.157V196.846L611.305 204.482L614.806 215.171L617.808 223.825L620.809 230.442L622.81 226.879V218.734L624.311 211.608L627.813 215.171V204.482Z" fill="#3A3A3A" fill-opacity="0.2"/>
<path d="M631.456 41.2847L626.454 31.1042L624.453 27.541C621.785 28.296 616.749 32.0228 617.949 40.8901C624.596 55.9402 630.789 85.2562 627.454 109.494C626.454 134.436 625.053 187.477 627.454 200.101L630.456 189.92L635.458 186.866L638.96 187.375L639.46 179.231L639.96 170.577L640.961 160.397L642.462 151.234L643.462 141.563L643.962 129.855V103.386L643.462 90.1512L642.462 80.9887L640.961 72.3353L637.959 60.1187L634.958 50.4472L631.456 41.2847Z" fill="#222222" fill-opacity="0.2"/>
<path d="M640.32 186.657L639.319 187.166L635.818 186.657L630.815 189.711L627.814 199.892V204.982V215.671L624.312 212.108L622.811 219.235V227.379L620.81 230.942L617.809 224.325L614.807 215.671L611.305 204.982L609.304 197.347V186.657V175.713V168.332C606.303 169.689 599.7 175.458 597.298 187.675L596.298 168.332C590.462 185.958 576.788 222.948 568.784 229.894L574.287 234.505L583.291 242.65L591.295 249.267L601.3 256.903L609.304 264.029L619.309 273.7L628.814 284.899L636.818 295.589L642.321 305.26C655.327 318.325 679.84 354.534 673.837 394.849C676.338 395.358 681.34 395.459 681.34 391.794C681.34 387.213 679.84 358.708 683.341 357.69C686.843 356.672 688.344 400.448 686.843 427.935C692.506 424.033 705.485 432.211 712.096 496.145C712.898 488.85 713.463 481.368 713.605 474.257C713.927 458.112 712.067 443.881 705.853 438.116C707.687 407.235 708.954 341.095 699.35 323.585C699.183 337.668 697.549 362.576 692.346 349.545C685.843 333.256 686.343 305.26 638.819 248.758C641.487 245.704 645.823 228.193 641.821 182.585L640.32 186.657Z" fill="#2E2E2E" fill-opacity="0.2"/>
<path d="M647.105 179.83L647.605 186.448L648.606 193.065L649.106 202.737V208.336L651.607 211.899L661.112 221.062L669.616 230.733L679.121 242.441L685.124 251.603L693.128 264.838L694.629 267.892L695.629 269.419V271.455L695.129 273.491L693.128 275.018L692.127 277.054L692.628 278.072L693.128 281.127L695.129 284.69L699.131 293.343L702.132 300.47L706.134 309.123L711.137 321.849L715.139 334.574L717.14 341.701L719.141 347.809L721.142 356.462L722.142 361.553L722.643 366.134L724.143 369.697L725.144 374.278L724.644 376.824L723.143 380.387L722.643 382.423V387.004V391.076L724.143 395.148L724.644 398.712L728.145 409.401L729.646 412.964L731.147 419.582L732.648 425.69L734.148 432.816L736.65 441.979L737.65 447.069L739.151 455.214L740.652 464.376L741.652 470.484L742.653 478.629L743.153 480.156L743.253 481.683C742.886 484.737 740.351 493.798 733.148 505.607C725.292 491.618 720.97 463.408 719.709 450.337C720.093 456.677 715.713 468.66 713.386 474.047C713.708 457.902 711.848 443.672 705.634 437.907C707.468 407.026 708.736 340.886 699.131 323.376C698.964 337.459 697.33 362.367 692.127 349.336C685.624 333.047 686.124 305.051 638.601 248.549C641.269 245.495 645.604 227.984 641.602 182.376L642.603 176.776L644.604 172.704L646.605 175.504L647.105 179.83Z" fill="#3A3A3A" fill-opacity="0.2"/>
<path d="M692.987 274.868L694.988 273.341C690.152 267.572 679.78 255.933 676.979 255.525C676.979 260.819 687.651 274.699 692.987 280.977L692.486 277.923L691.986 276.904L692.987 274.868Z" fill="#3A3A3A" fill-opacity="0.2"/>
<path d="M640.82 364.667L634.316 353.977C643.921 360.9 644.655 353.129 643.821 348.378L647.823 358.049L651.325 364.667L654.327 366.703L652.826 361.104L651.325 353.977L649.324 345.324L646.323 335.143L643.821 329.035L640.82 322.418L634.817 314.273L631.315 307.147L627.813 302.057L626.813 300.021L628.814 301.039L631.315 304.093L638.318 311.728L643.821 318.345L649.324 325.472L646.323 315.291L642.32 305.62C655.327 318.685 679.839 354.894 673.836 395.208C676.338 395.717 681.34 395.819 681.34 392.154C681.34 387.573 679.839 359.068 683.341 358.049C686.843 357.031 688.344 400.808 686.843 428.295C692.506 424.393 705.484 432.571 712.096 496.505C710.731 508.912 708.678 520.774 706.853 529.337L705.852 517.375L702.851 506.176L699.349 496.505L695.847 488.36L691.845 480.216L686.843 470.544L681.34 461.891L672.336 449.165L664.332 440.003L654.827 429.822L645.322 420.151L633.816 409.461L624.812 401.826L620.81 399.535L616.808 397.244L610.805 393.681L606.803 390.627H612.305L623.811 392.154L631.315 393.681L638.819 396.735L645.322 399.79L651.325 403.353V395.208L649.324 388.591L646.323 376.883L640.82 364.667Z" fill="#2E2E2E" fill-opacity="0.2"/>
<path d="M514.256 351.223L490.244 363.948C507.453 344.402 489.411 335.782 478.238 333.916C518.258 340.024 544.938 329.334 553.276 323.226C555.677 319.968 521.76 317.457 504.501 316.609L507.753 313.555L510.755 311.009L576.788 309.482L595.797 314.064L612.305 320.172L623.811 327.298L634.817 337.479L643.821 348.168C644.655 352.919 643.921 360.69 634.316 353.768L628.814 346.641L620.81 339.006L611.305 334.425L600.8 330.352L594.797 328.825H581.29L564.281 330.352L550.274 334.425L532.766 342.395L531.265 343.078L514.256 351.223Z" fill="#2E2E2E" fill-opacity="0.2" stroke="#2E2E2E" stroke-opacity="0.2"/>
<path d="M563.922 330.561L549.915 334.633L532.406 342.604L548.414 342.269L558.419 343.287H566.423L574.928 346.85L585.433 348.886L592.937 351.431L600.44 358.049H596.438L587.934 361.103L581.431 364.666L576.428 371.792L581.431 373.319H589.935L596.438 375.356L606.443 378.41L614.447 382.991L620.45 388.59L623.452 392.153L630.956 393.68L638.459 396.735L644.963 399.789L650.966 403.352V395.208L648.965 388.59L645.963 376.883L640.46 364.666L633.957 353.976L628.454 346.85L620.45 339.215L610.946 334.633L600.44 330.561L594.437 329.034H580.931L563.922 330.561Z" fill="#2E2E2E" fill-opacity="0.2"/>
<path d="M490.235 363.948L477.228 371.583L471.816 375.146C470.785 375.825 466.923 375.452 459.719 368.529C452.516 361.606 452.382 342.908 453.216 334.424L457.718 333.915L465.222 332.897L469.474 332.388L473.726 331.879L483.731 329.843L489.234 327.043L493.736 324.753L501.24 319.663L504.492 316.608C521.75 317.457 555.667 319.968 553.266 323.226C544.929 329.334 518.249 340.024 478.229 333.915C489.401 335.782 507.443 344.401 490.235 363.948Z" fill="#3A3A3A" fill-opacity="0.2"/>
<path d="M420.401 421.468L414.899 429.103C401.292 388.381 415.232 363.269 423.903 355.803C417.5 301.643 432.241 286.067 440.411 285.049L442.412 289.63L445.414 294.72L447.915 298.284L449.916 307.955L442.913 331.37L448.415 331.879V335.442L452.918 334.424C452.084 342.908 452.217 361.606 459.421 368.529C466.624 375.452 470.487 375.825 471.518 375.146L459.921 382.782L449.416 390.926L438.911 400.089L427.905 411.796L420.401 421.468Z" fill="#2E2E2E" fill-opacity="0.2"/>
<path d="M442.721 268.761L440.219 271.306L439.219 272.833V279.959L440.219 284.541L442.22 289.122L445.222 294.212L447.723 297.775H449.224L449.724 296.757L452.225 292.685L455.227 287.086L458.228 280.977L461.23 275.378L461.73 272.833L458.228 270.797L452.225 268.761H442.721Z" fill="#2E2E2E" fill-opacity="0.2"/>
<path d="M456.428 307.805L448.424 328.166V331.729L442.921 331.22L449.924 307.805L447.923 298.134H449.424L449.924 297.116L452.426 293.043L455.427 287.444L458.429 281.336L461.43 275.737L461.93 273.191L464.432 280.318C464.765 280.657 465.582 286.324 466.183 306.278H458.429L456.428 307.805Z" fill="#2E2E2E" fill-opacity="0.2"/>
<path d="M456.228 307.955L448.224 328.316V331.879V335.442L452.726 334.424L457.228 333.915L464.732 332.897L468.984 332.388L473.236 331.879L472.236 331.37H466.733L464.232 330.861L461.23 327.298L459.729 323.226L460.23 319.662L461.73 314.572L463.231 311.518L464.732 309.482L466.233 308.464H463.231L460.23 307.955L458.229 306.937V306.428L456.228 307.955Z" fill="#121212" fill-opacity="0.2" stroke="#121212" stroke-opacity="0.2"/>
<path d="M466.733 331.371H472.236L474.737 328.825L475.283 327.298L466.733 326.28L464.232 323.735V319.154V313.046C464.232 312.537 464.032 311.519 463.231 311.519L461.73 314.573L460.23 319.663L459.729 323.226L461.23 327.298L464.232 330.862L466.733 331.371Z" fill="#222222" fill-opacity="0.2" stroke="#222222" stroke-opacity="0.2"/>
<path d="M468.984 312.536H464.732L464.231 313.045V319.153L465.232 320.681H468.984L470.234 319.662V313.554L468.984 312.536Z" fill="#3A3A3A" fill-opacity="0.2" stroke="#3A3A3A" stroke-opacity="0.2"/>
<path d="M468.234 308.464H474.237H475.237L476.738 309.991V316.608V323.226L475.283 327.298L466.733 326.28L464.232 323.735V319.153L465.232 320.68H468.984L470.235 319.662V313.554L468.984 312.536H464.732L464.232 313.045C464.065 312.366 463.632 311.111 463.231 311.518L464.732 309.482L466.233 308.464H468.234Z" fill="#121212" fill-opacity="0.2" stroke="#121212" stroke-opacity="0.2"/>
<path d="M473.236 331.879L483.241 329.843L488.744 327.043L489.244 326.28L490.745 323.735L491.745 321.19V318.644V316.048L491.245 315.896L490.244 315.59L487.243 313.045L483.241 309.991L478.739 308.464H475.237L476.738 309.991V316.608V323.226L475.282 327.298L474.737 328.825L472.235 331.37L473.236 331.879Z" fill="#1A1A1A" fill-opacity="0.2" stroke="#1A1A1A" stroke-opacity="0.2"/>
<path d="M481.599 307.853L474.096 306.326H466.342H458.588V306.835L460.589 307.853L463.59 308.362H466.592H468.593H474.596H475.596H479.098L483.6 309.889L487.602 312.944L490.604 315.489L491.604 315.794L492.105 315.947L495.606 317.016H500.109L504.361 316.507L507.612 313.453L510.614 310.907H496.607L488.603 309.38L481.599 307.853Z" fill="#121212" fill-opacity="0.2" stroke="#121212" stroke-opacity="0.2"/>
<path d="M493.387 324.804L500.891 319.714L504.142 316.66L499.89 317.169H495.388L491.886 316.1V318.696V321.241L490.886 323.786L489.385 326.331L488.885 327.095L493.387 324.804Z" fill="#1A1A1A" fill-opacity="0.2" stroke="#1A1A1A" stroke-opacity="0.2"/>
<path d="M385.692 314.175L387.693 316.72V322.32C389.027 317.399 391.295 306.642 389.694 302.977C388.094 299.312 383.691 299.074 381.69 299.413L385.692 303.995V307.558V314.175Z" fill="#1A1A1A" fill-opacity="0.2"/>
</svg>
